<svg width="652" height="651" viewBox="0 0 652 651" fill="none" xmlns="http://www.w3.org/2000/svg">
<path d="M214.839 327.94C214.839 327.94 220.575 327.14 223.643 326.618C223.643 326.618 257.726 319.488 252.797 299.848C252.797 299.848 246.454 281.263 206.823 305.839C206.823 305.839 172.128 327.849 188.329 349.253C188.329 349.253 197.661 362.29 217.04 356.39C225.085 353.848 232.175 348.937 237.383 342.299C237.383 342.299 215.555 356.918 203.567 345.646C203.567 345.646 197.91 340.189 202.512 333.313C202.512 333.313 205.15 329.353 214.839 327.94ZM222.8 305.893C236.983 297.289 241.494 301.273 241.494 301.273C246.012 305.736 235.34 313.703 235.34 313.703C219.023 326.4 208.084 322.629 208.084 322.629C209.382 314.558 222.8 305.893 222.8 305.893Z" fill="#2F765F"/>
<path d="M242.809 323.817C242.809 323.817 233.877 323.575 232.265 331.287C230.682 338.843 241.269 343.754 247.963 339.904V335.702C247.963 335.702 243.07 340.025 238.34 336.011C238.34 336.011 234.932 332.864 238.34 329.05C238.34 329.05 241.663 325.727 246.277 328.704C246.94 329.158 247.483 329.765 247.862 330.473C248.241 331.181 248.444 331.97 248.454 332.773V340.971H253.117V332.088C253.117 332.088 252.777 324.345 242.809 323.817Z" fill="#2F765F"/>
<path d="M272.62 323.816H262.919C262.919 323.816 257.098 323.926 257.098 328.249C257.098 332.572 262.24 333.148 262.919 333.36C263.598 333.573 270.067 335.264 268.982 336.544C268.982 336.544 268.74 336.835 267.769 336.835H257.358V340.843H267.254C267.254 340.843 273.318 340.594 273.609 336.732C273.906 332.615 270.171 331.729 268.194 331.135C266.217 330.541 261.172 329.401 261.621 328.182C261.621 328.182 261.67 327.8 262.276 327.8H272.584L272.62 323.816Z" fill="#2F765F"/>
<path d="M466.933 323.836H457.231C457.231 323.836 451.41 323.945 451.41 328.274C451.41 332.604 456.552 333.168 457.231 333.38C457.91 333.592 464.38 335.284 463.295 336.563C463.295 336.563 463.052 336.854 462.082 336.854H451.695V340.862H461.585C461.585 340.862 467.648 340.614 467.945 336.751C468.242 332.634 464.507 331.749 462.531 331.155C460.554 330.56 455.509 329.42 455.952 328.202C455.952 328.202 456.006 327.82 456.613 327.82H466.921L466.933 323.836Z" fill="#2F765F"/>
<path d="M289.153 323.816V334.512C289.153 334.512 288.893 337.593 285.382 337.593C284.464 337.66 283.555 337.384 282.83 336.818C282.105 336.252 281.616 335.437 281.459 334.531V323.816H276.766V333.955C276.766 333.955 276.766 339.648 283.011 340.885V348.161H287.819V340.861C289.464 340.576 290.96 339.734 292.057 338.476C293.155 337.219 293.786 335.622 293.847 333.955V323.816H289.153Z" fill="#2F765F"/>
<path d="M418.047 323.836V340.856H422.855V332.919C422.855 328.068 426.172 327.656 426.172 327.656H429.762V323.836H425.99C424.731 323.852 423.511 324.278 422.516 325.049V323.836H418.047Z" fill="#2F765F"/>
<path d="M344.273 332.9C344.079 335.55 341.562 337.648 338.464 337.648C335.535 337.648 333.116 335.762 332.71 333.301L334.832 336.011L344.127 331.427L348.202 329.414C347.661 328.277 346.881 327.27 345.916 326.461C343.802 324.721 341.141 323.784 338.403 323.817C332.582 323.817 327.871 327.752 327.871 332.597C327.871 337.442 332.582 341.377 338.403 341.377C344.036 341.377 348.626 337.684 348.905 333.04L344.273 332.9ZM338.464 327.51C339.656 327.501 340.826 327.827 341.841 328.45L332.667 332.906V332.579C332.649 329.778 335.256 327.51 338.464 327.51Z" fill="#2F765F"/>
<path d="M316.691 323.896C324.622 324.769 324.495 331.117 324.495 331.117V340.879H320.044V331.542C319.963 330.459 319.475 329.447 318.679 328.708C317.883 327.97 316.837 327.559 315.751 327.559C314.666 327.559 313.62 327.97 312.824 328.708C312.028 329.447 311.54 330.459 311.459 331.542V340.879H307.008V331.117C307.008 331.117 306.881 324.769 314.818 323.896C315.44 323.816 316.069 323.816 316.691 323.896Z" fill="#2F765F"/>
<path d="M359.737 336.952C356.96 336.952 357.051 334.084 357.051 334.084V327.899H363.478V323.958H357.051V323.594H352.352V335.114C352.352 335.114 352.443 340.857 359.373 340.857L363.527 340.905V336.982L359.737 336.952Z" fill="#2F765F"/>
<path d="M357.962 317.354C357.962 318.022 357.764 318.675 357.393 319.23C357.021 319.786 356.494 320.219 355.877 320.474C355.26 320.73 354.581 320.797 353.926 320.666C353.27 320.536 352.669 320.214 352.196 319.742C351.724 319.27 351.402 318.668 351.272 318.013C351.142 317.358 351.208 316.679 351.464 316.061C351.72 315.444 352.153 314.917 352.708 314.546C353.263 314.175 353.916 313.977 354.584 313.977C355.028 313.976 355.468 314.063 355.878 314.232C356.288 314.401 356.661 314.65 356.974 314.964C357.288 315.278 357.537 315.65 357.706 316.061C357.876 316.471 357.963 316.91 357.962 317.354Z" fill="#FBC600"/>
<path d="M388.333 334.089C388.354 334.512 388.286 334.934 388.133 335.329C387.981 335.724 387.747 336.082 387.448 336.381C386.802 336.94 385.977 337.248 385.123 337.248C384.269 337.248 383.443 336.94 382.797 336.381C382.502 336.078 382.272 335.716 382.123 335.32C381.974 334.923 381.908 334.5 381.93 334.077V323.836H377.686V334.089C377.709 334.512 377.643 334.935 377.493 335.331C377.342 335.727 377.111 336.087 376.813 336.387C376.5 336.683 376.132 336.913 375.728 337.063C375.325 337.213 374.896 337.28 374.466 337.261C374.04 337.281 373.614 337.214 373.215 337.064C372.815 336.914 372.451 336.684 372.144 336.387C371.848 336.084 371.619 335.722 371.47 335.326C371.32 334.929 371.255 334.506 371.277 334.083V323.836H367.032V333.586C366.983 334.595 367.139 335.603 367.489 336.55C367.839 337.497 368.376 338.364 369.07 339.098C369.782 339.791 370.629 340.332 371.558 340.685C372.487 341.039 373.479 341.198 374.472 341.153C375.565 341.163 376.647 340.936 377.643 340.486C378.442 340.118 379.168 339.61 379.79 338.989C380.394 339.613 381.11 340.119 381.9 340.48C382.914 340.936 384.014 341.165 385.126 341.153C386.117 341.199 387.107 341.041 388.035 340.689C388.963 340.338 389.81 339.801 390.522 339.11C391.212 338.371 391.746 337.502 392.094 336.553C392.442 335.604 392.596 334.595 392.547 333.586V323.836H388.303L388.333 334.089Z" fill="#2F765F"/>
<path d="M411.851 326.34C410.984 325.526 409.964 324.891 408.85 324.473C406.574 323.624 404.068 323.624 401.792 324.473C400.685 324.897 399.67 325.531 398.803 326.34C397.933 327.137 397.232 328.1 396.741 329.172C396.263 330.219 396.017 331.356 396.02 332.507C396.017 333.673 396.261 334.826 396.735 335.89C397.227 336.965 397.93 337.93 398.803 338.728C399.673 339.532 400.687 340.163 401.792 340.59C402.914 341.022 404.106 341.242 405.309 341.238C406.518 341.244 407.718 341.028 408.85 340.602C409.96 340.183 410.978 339.55 411.845 338.74C412.713 337.953 413.406 336.993 413.88 335.921C414.355 334.85 414.599 333.691 414.598 332.519C414.598 331.366 414.356 330.226 413.889 329.172C413.411 328.098 412.718 327.134 411.851 326.34ZM410.245 332.477C410.26 333.124 410.14 333.767 409.892 334.365C409.645 334.964 409.275 335.504 408.808 335.951C407.872 336.864 406.616 337.376 405.309 337.376C404.001 337.376 402.746 336.864 401.81 335.951C401.342 335.504 400.971 334.964 400.723 334.366C400.474 333.768 400.353 333.124 400.367 332.477C400.353 331.833 400.474 331.193 400.723 330.599C400.972 330.004 401.342 329.469 401.81 329.026C402.749 328.117 404.005 327.609 405.312 327.609C406.619 327.609 407.875 328.117 408.814 329.026C409.279 329.47 409.647 330.006 409.893 330.601C410.14 331.195 410.259 331.834 410.245 332.477Z" fill="#2F765F"/>
<path d="M445.783 328.355L448.967 323.649H443.873L441.448 327.233C441.027 327.948 440.461 328.568 439.787 329.052C439.199 329.359 438.54 329.506 437.877 329.476H437.052V316.258H432.723V340.87H437.052V333.442H440.235C441.042 333.364 441.849 333.596 442.491 334.091C442.738 334.383 442.923 334.722 443.037 335.088C443.15 335.453 443.189 335.838 443.152 336.219V340.857H447.499V335.861C447.583 334.459 447.171 333.073 446.335 331.944C445.724 331.239 444.932 330.714 444.043 330.428C444.14 330.343 444.243 330.246 444.346 330.143C444.881 329.593 445.362 328.995 445.783 328.355Z" fill="#2F765F"/>
<path fill-rule="evenodd" clip-rule="evenodd" d="M325.99 0.105469C146.27 0.105667 0.578125 145.798 0.578125 325.518C0.578125 325.519 0.578125 325.52 0.578125 325.521H50.5781C50.5781 325.52 50.5781 325.519 50.5781 325.518C50.5781 173.412 173.884 50.1057 325.99 50.1055V0.105469Z" fill="#EBF2EF"/>
<path fill-rule="evenodd" clip-rule="evenodd" d="M325.99 650.934C146.27 650.933 0.578125 505.242 0.578125 325.521C0.578125 325.52 0.578125 325.519 0.578125 325.518H50.5781C50.5781 325.519 50.5781 325.52 50.5781 325.521C50.5781 477.627 173.884 600.933 325.99 600.934V650.934Z" fill="#3D7F69"/>
<path fill-rule="evenodd" clip-rule="evenodd" d="M325.998 0.105469C505.718 0.105667 651.41 145.798 651.41 325.518C651.41 325.519 651.41 325.52 651.41 325.521H601.41C601.41 325.52 601.41 325.519 601.41 325.518C601.41 173.412 478.104 50.1057 325.998 50.1055V0.105469Z" fill="#D9E6E1"/>
<path fill-rule="evenodd" clip-rule="evenodd" d="M325.998 650.934C505.718 650.933 651.41 505.242 651.41 325.521C651.41 325.52 651.41 325.519 651.41 325.518H601.41C601.41 325.519 601.41 325.52 601.41 325.521C601.41 477.627 478.104 600.933 325.998 600.934V650.934Z" fill="#B7D0C7"/>
<path d="M83.6262 145.605L84.3884 146.362L93.5164 137.234L92.7541 136.477L83.6262 145.605ZM86.2244 139.99L87.9731 141.728L88.8892 140.811L87.1406 139.074L86.2244 139.99ZM86.3915 146.326L87.1537 147.083L93.2093 141.027L95.608 143.41L96.5353 142.483L93.3743 139.343L86.3915 146.326ZM79.8559 139.432L83.6446 143.196L90.3705 136.47L86.5818 132.706L85.6545 133.633L86.7978 134.769L81.9154 139.652L80.772 138.516L79.8559 139.432ZM82.644 140.375L87.5264 135.493L88.7033 136.662L83.8209 141.545L82.644 140.375ZM92.808 128.893L94.4557 130.53C96.2044 132.267 96.8921 135.378 96.1235 137.532L97.3996 137.731C98.2126 135.331 97.3452 131.908 95.2043 129.782L93.5565 128.145L92.808 128.893ZM92.9867 128.714L94.6345 130.351C96.7418 132.445 100.011 133.109 102.404 132.235L102.189 130.975C100.064 131.826 97.098 131.307 95.383 129.603L93.7353 127.966L92.9867 128.714ZM90.047 130.827L90.8316 131.607L96.4738 125.965L95.6891 125.185L90.047 130.827ZM96.021 122.798L106.154 132.864L107.081 131.937L96.9483 121.87L96.021 122.798ZM103.778 124.649L104.529 125.395L113.657 116.267L112.906 115.521L103.778 124.649ZM109.962 121.705C107.806 123.861 107.171 125.836 108.337 126.995C109.503 128.153 111.471 127.503 113.628 125.346C115.784 123.19 116.43 121.226 115.264 120.068C114.098 118.909 112.118 119.549 109.962 121.705ZM110.702 122.44C112.288 120.853 113.619 120.305 114.325 121.006C115.02 121.697 114.485 123.036 112.899 124.622C111.324 126.198 109.97 126.747 109.275 126.056C108.569 125.355 109.127 124.015 110.702 122.44ZM103.844 116.807L104.147 117.108C105.29 118.244 104.555 120.788 102.947 122.798L104.011 123.187C105.854 120.853 106.599 117.896 104.973 116.281L104.671 115.98L103.844 116.807ZM104.235 116.416L104.538 116.717C106.163 118.331 109.116 117.59 111.452 115.746L111.059 114.687C109.047 116.297 106.496 117.037 105.353 115.901L105.051 115.6L104.235 116.416ZM100.312 119.534L101.063 120.281L108.537 112.806L107.786 112.06L100.312 119.534ZM116.063 102.734L126.207 112.811L127.146 111.873L117.001 101.795L116.063 102.734ZM120.858 106.139L121.631 106.907L123.497 105.041L122.724 104.273L120.858 106.139ZM114.58 106.406L114.726 106.55C117.405 109.212 118.172 112.758 116.802 116.965L118.034 117.164C119.648 112.264 118.366 108.363 115.485 105.501L114.58 106.406ZM110.86 110.126L111.622 110.883L115.823 106.682L115.061 105.925L110.86 110.126Z" fill="#2F765F"/>
<path d="M96.4864 510.318L86.3973 520.473L87.3246 521.401L97.4137 511.245L96.4864 510.318ZM91.3049 506.7C89.8189 505.214 87.3766 505.521 85.2386 507.673C83.0893 509.836 82.7922 512.287 84.2782 513.773C85.7753 515.271 88.2176 514.964 90.3668 512.801C92.5049 510.649 92.802 508.198 91.3049 506.7ZM90.4697 507.541C91.464 508.535 91.0988 510.271 89.473 511.907C87.836 513.555 86.0854 513.95 85.0911 512.955C84.1079 511.972 84.4842 510.203 86.1212 508.555C87.747 506.919 89.4865 506.558 90.4697 507.541ZM94.4178 521.388L93.6717 522.139L99.4815 527.949L96.6975 530.751L97.636 531.69L101.166 528.136L94.4178 521.388ZM106.764 520.618L100.784 526.637L101.723 527.576L107.703 521.557L106.764 520.618ZM101.694 516.732C100.163 515.201 98.0772 515.082 96.663 516.505C95.2599 517.918 95.3971 519.999 96.9278 521.529C98.4472 523.049 100.522 523.18 101.925 521.767C103.34 520.344 103.213 518.251 101.694 516.732ZM100.903 517.528C101.909 518.533 101.989 519.91 101.031 520.874C100.085 521.826 98.7017 521.762 97.6961 520.756C96.6906 519.751 96.6214 518.363 97.5679 517.41C98.5256 516.446 99.8977 516.522 100.903 517.528ZM104.902 528.364L104.156 529.115L113.284 538.243L114.03 537.492L104.902 528.364ZM107.846 534.548C105.69 532.392 103.714 531.757 102.556 532.923C101.398 534.089 102.048 536.057 104.205 538.213C106.361 540.37 108.325 541.016 109.483 539.85C110.641 538.684 110.002 536.704 107.846 534.548ZM107.111 535.288C108.697 536.874 109.246 538.205 108.545 538.911C107.854 539.606 106.515 539.071 104.928 537.485C103.353 535.91 102.804 534.556 103.495 533.861C104.196 533.155 105.536 533.713 107.111 535.288ZM112.744 528.43L112.443 528.732C111.307 529.876 108.763 529.141 106.752 527.533L106.364 528.597C108.698 530.44 111.655 531.185 113.27 529.559L113.571 529.257L112.744 528.43ZM113.135 528.821L112.834 529.124C111.219 530.749 111.96 533.702 113.805 536.038L114.864 535.644C113.254 533.633 112.514 531.082 113.65 529.939L113.95 529.636L113.135 528.821ZM110.016 524.898L109.27 525.649L116.745 533.123L117.491 532.372L110.016 524.898ZM126.817 540.649L116.739 550.793L117.678 551.731L127.756 541.587L126.817 540.649ZM123.412 545.444L122.644 546.217L124.509 548.083L125.278 547.31L123.412 545.444ZM123.145 539.166L123 539.312C120.339 541.991 116.793 542.758 112.586 541.388L112.387 542.62C117.286 544.234 121.188 542.952 124.05 540.071L123.145 539.166ZM119.425 535.446L118.667 536.208L122.868 540.409L123.626 539.647L119.425 535.446Z" fill="white"/>
<path d="M542.06 105.251L541.166 105.956C539.579 107.208 537.218 107.219 535.297 105.997L534.91 107.167C537.061 108.53 539.779 108.438 541.839 106.814L542.732 106.11L542.06 105.251ZM542.216 105.45L541.322 106.155C539.362 107.701 538.726 110.296 539.554 112.66L540.78 112.559C540.032 110.452 540.481 108.207 541.995 107.013L542.888 106.309L542.216 105.45ZM547.277 109.528L540.491 114.88L541.309 115.925L548.095 110.573L547.277 109.528ZM534.828 108.882L533.985 109.547L539.051 116.015L536.062 118.373L536.88 119.418L540.714 116.395L534.828 108.882ZM540.425 102.395L539.593 103.051L544.417 109.208L545.248 108.552L540.425 102.395ZM546.688 120.434L544.195 122.401L545.003 123.434L547.497 121.467L546.688 120.434ZM556.24 120.97L547.705 127.702L548.514 128.734L557.049 122.002L556.24 120.97ZM540.914 122.312L540.07 122.978L546.297 130.926L547.14 130.26L540.914 122.312ZM543.333 120.404L540.678 122.498L541.487 123.531L544.142 121.437L543.333 120.404ZM543.868 117.628C545.466 119.668 547.637 122.363 549.922 124.485L550.62 123.813C548.439 121.67 546.231 118.903 544.604 116.826L543.868 117.628ZM547.823 123.907L547.066 124.503L549.063 127.053L549.82 126.456L547.823 123.907ZM552.196 116.755C550.9 115.101 549.254 114.588 548.075 115.517C546.884 116.457 546.992 118.183 548.288 119.837C549.574 121.479 551.22 121.992 552.411 121.052C553.59 120.123 553.482 118.397 552.196 116.755ZM551.426 117.362C552.245 118.406 552.361 119.502 551.641 120.07C550.922 120.637 549.888 120.265 549.069 119.221C548.241 118.163 548.125 117.068 548.845 116.5C549.564 115.933 550.598 116.304 551.426 117.362ZM565.448 132.723L558.351 138.32L559.121 139.303L566.217 133.706L565.448 132.723ZM560.976 133.292L560.12 133.967L561.786 136.094L562.642 135.419L560.976 133.292ZM563.344 130.499L556.868 135.606L557.628 136.577L564.104 131.469L563.344 130.499ZM557.414 125.235L556.595 125.881L561.058 131.577L561.876 130.932L557.414 125.235ZM558.265 129.192C557.155 127.774 555.616 127.398 554.462 128.308C553.296 129.227 553.309 130.807 554.419 132.225C555.521 133.63 557.047 134.016 558.213 133.096C559.367 132.186 559.366 130.597 558.265 129.192ZM557.496 129.798C558.178 130.669 558.187 131.628 557.492 132.176C556.785 132.734 555.871 132.489 555.189 131.618C554.497 130.735 554.476 129.786 555.183 129.228C555.878 128.68 556.804 128.915 557.496 129.798ZM560.508 126.598L558.796 127.948L559.586 128.955L561.298 127.605L560.508 126.598ZM556.038 135.778C554.187 133.414 552.401 132.569 551.148 133.557C549.907 134.536 550.292 136.487 552.143 138.85C553.975 141.188 555.783 142.036 557.024 141.058C558.277 140.069 557.87 138.116 556.038 135.778ZM555.244 136.404C556.579 138.108 556.969 139.451 556.225 140.038C555.48 140.625 554.259 139.938 552.925 138.234C551.57 136.505 551.203 135.164 551.947 134.577C552.691 133.99 553.89 134.675 555.244 136.404ZM561.975 140.23L561.131 140.895L569.092 151.057L569.936 150.392L561.975 140.23ZM567.236 143.486L565.3 145.012L566.099 146.032L568.035 144.506L567.236 143.486ZM560.926 142.888L560.083 143.553L565.364 150.295L562.709 152.389L563.518 153.421L567.016 150.662L560.926 142.888ZM568.558 137.231L564.365 140.539L570.23 148.026L574.424 144.719L573.615 143.687L572.35 144.685L568.091 139.249L569.357 138.251L568.558 137.231ZM567.285 139.885L571.543 145.321L570.24 146.348L565.982 140.913L567.285 139.885Z" fill="#2F765F"/>
<path d="M506.544 559.977L507.317 560.746L513.82 554.243L513.046 553.475L506.544 559.977ZM512.521 567.831L513.295 568.6L522.423 559.472L521.649 558.703L512.521 567.831ZM512.442 560.693L516.444 564.668L517.371 563.741L513.37 559.765L512.442 560.693ZM512.7 553.821L513.709 554.824C514.919 556.026 516.343 557.44 517.902 559.747L518.953 558.942C517.27 556.535 515.88 555.155 514.625 553.907L513.616 552.905L512.7 553.821ZM522.472 542.038L528.446 547.974L529.329 547.091L523.354 541.156L522.472 542.038ZM523.407 546.175L524.181 546.943L526.091 545.033L525.318 544.265L523.407 546.175ZM520.461 544.429L526.189 550.119L527.061 549.248L521.333 543.557L520.461 544.429ZM523.029 554.352L523.791 555.109L529.657 549.243L532.571 552.139L533.487 551.223L529.811 547.57L523.029 554.352ZM519.055 546.952L519.369 547.264C521.263 549.146 521.615 551.811 520.288 554.97L521.43 555.191C522.901 551.575 522.415 548.419 519.994 546.013L519.055 546.952ZM516.05 549.957L516.812 550.715L520.153 547.374L519.39 546.617L516.05 549.957ZM526.451 539.869L531.148 544.535L535.784 539.898L531.088 535.232L526.451 539.869ZM530.934 536.883L534.128 540.057L531.302 542.884L528.107 539.71L530.934 536.883ZM532.023 532.464L539.455 539.848L540.382 538.92L532.951 531.537L532.023 532.464ZM535.754 534.901L536.527 535.669L538.315 533.882L537.541 533.113L535.754 534.901ZM535.818 546.925L536.581 547.682L543.329 540.934L542.567 540.177L535.818 546.925ZM533.386 544.509L536.143 547.248L537.071 546.321L534.313 543.581L533.386 544.509ZM540.17 525.949L540.472 526.25C541.627 527.397 540.904 529.952 539.307 531.974L540.371 532.362C542.202 530.017 542.936 527.049 541.299 525.423L540.997 525.122L540.17 525.949ZM540.561 525.558L540.864 525.859C542.5 527.484 545.464 526.755 547.812 524.921L547.418 523.862C545.406 525.472 542.834 526.19 541.679 525.043L541.376 524.742L540.561 525.558ZM536.649 528.688L537.4 529.434L544.875 521.959L544.124 521.213L536.649 528.688ZM540.474 534.158L541.236 534.915L550.398 525.754L549.636 524.997L540.474 534.158ZM543.061 528.554L544.945 530.425L545.861 529.509L543.978 527.638L543.061 528.554ZM543.262 534.901L544.013 535.647L550.069 529.591L552.602 532.108L553.529 531.181L550.245 527.918L543.262 534.901Z" fill="#2F765F"/>
</svg>
