<svg width="288" height="289" viewBox="0 0 288 289" fill="none" xmlns="http://www.w3.org/2000/svg">
<path d="M86.5324 145.885C86.5324 145.885 89.498 145.471 91.0842 145.201C91.0842 145.201 108.705 141.515 106.157 131.361C106.157 131.361 102.878 121.752 82.3882 134.458C82.3882 134.458 64.4506 145.838 72.8269 156.904C72.8269 156.904 77.6514 163.643 87.6704 160.593C91.8297 159.279 95.4954 156.74 98.1878 153.308C98.1878 153.308 86.9024 160.866 80.7048 155.038C80.7048 155.038 77.7799 152.217 80.1593 148.662C80.1593 148.662 81.523 146.615 86.5324 145.885ZM90.6485 134.486C97.9809 130.038 100.313 132.097 100.313 132.097C102.649 134.405 97.1314 138.524 97.1314 138.524C88.6955 145.088 83.0402 143.138 83.0402 143.138C83.7111 138.966 90.6485 134.486 90.6485 134.486Z" fill="#2F765F"/>
<path d="M100.993 143.752C100.993 143.752 96.3751 143.627 95.5412 147.615C94.723 151.521 100.196 154.06 103.657 152.069V149.897C103.657 149.897 101.128 152.132 98.6823 150.057C98.6823 150.057 96.9206 148.43 98.6823 146.458C98.6823 146.458 100.4 144.74 102.786 146.279C103.128 146.514 103.409 146.827 103.605 147.193C103.801 147.56 103.906 147.967 103.911 148.383V152.621H106.322V148.028C106.322 148.028 106.146 144.025 100.993 143.752Z" fill="#2F765F"/>
<path d="M116.406 143.752H111.39C111.39 143.752 108.381 143.808 108.381 146.044C108.381 148.279 111.039 148.576 111.39 148.686C111.741 148.796 115.086 149.671 114.525 150.332C114.525 150.332 114.4 150.482 113.898 150.482H108.516V152.555H113.632C113.632 152.555 116.767 152.426 116.917 150.429C117.071 148.301 115.14 147.843 114.118 147.536C113.096 147.229 110.487 146.639 110.719 146.009C110.719 146.009 110.745 145.812 111.058 145.812H116.387L116.406 143.752Z" fill="#2F765F"/>
<path d="M216.866 143.764H211.85C211.85 143.764 208.841 143.82 208.841 146.058C208.841 148.297 211.499 148.588 211.85 148.698C212.201 148.808 215.546 149.682 214.985 150.344C214.985 150.344 214.86 150.494 214.358 150.494H208.988V152.566H214.101C214.101 152.566 217.236 152.438 217.39 150.441C217.543 148.312 215.612 147.855 214.59 147.547C213.568 147.24 210.96 146.651 211.189 146.021C211.189 146.021 211.217 145.823 211.531 145.823H216.86L216.866 143.764Z" fill="#2F765F"/>
<path d="M124.953 143.752V149.282C124.953 149.282 124.819 150.874 123.003 150.874C122.529 150.909 122.059 150.767 121.684 150.474C121.309 150.181 121.056 149.76 120.975 149.291V143.752H118.549V148.993C118.549 148.993 118.549 151.937 121.778 152.577V156.338H124.264V152.564C125.114 152.416 125.887 151.981 126.455 151.331C127.022 150.681 127.349 149.856 127.38 148.993V143.752H124.953Z" fill="#2F765F"/>
<path d="M191.591 143.764V152.563H194.077V148.46C194.077 145.952 195.792 145.739 195.792 145.739H197.647V143.764H195.697C195.047 143.772 194.416 143.992 193.901 144.391V143.764H191.591Z" fill="#2F765F"/>
<path d="M153.45 148.448C153.35 149.818 152.049 150.903 150.447 150.903C148.933 150.903 147.682 149.928 147.472 148.655L148.57 150.057L153.375 147.687L155.482 146.646C155.202 146.058 154.799 145.537 154.3 145.119C153.207 144.219 151.831 143.735 150.416 143.752C147.406 143.752 144.971 145.787 144.971 148.292C144.971 150.796 147.406 152.831 150.416 152.831C153.328 152.831 155.701 150.922 155.845 148.52L153.45 148.448ZM150.447 145.662C151.063 145.657 151.668 145.825 152.193 146.147L147.45 148.452V148.282C147.441 146.834 148.789 145.662 150.447 145.662Z" fill="#2F765F"/>
<path d="M139.19 143.794C143.29 144.246 143.225 147.528 143.225 147.528V152.575H140.924V147.748C140.881 147.188 140.629 146.664 140.218 146.283C139.806 145.901 139.266 145.689 138.704 145.689C138.143 145.689 137.602 145.901 137.19 146.283C136.779 146.664 136.527 147.188 136.485 147.748V152.575H134.184V147.528C134.184 147.528 134.118 144.246 138.221 143.794C138.543 143.753 138.868 143.753 139.19 143.794Z" fill="#2F765F"/>
<path d="M161.444 150.543C160.008 150.543 160.055 149.06 160.055 149.06V145.862H163.378V143.825H160.055V143.637H157.626V149.593C157.626 149.593 157.673 152.562 161.256 152.562L163.404 152.587V150.558L161.444 150.543Z" fill="#2F765F"/>
<path d="M160.527 140.412C160.527 140.757 160.425 141.095 160.233 141.382C160.041 141.669 159.769 141.893 159.449 142.025C159.13 142.157 158.779 142.192 158.441 142.125C158.102 142.057 157.791 141.891 157.547 141.647C157.302 141.403 157.136 141.091 157.069 140.753C157.001 140.414 157.036 140.063 157.168 139.744C157.3 139.425 157.524 139.152 157.811 138.96C158.098 138.768 158.436 138.666 158.781 138.666C159.011 138.666 159.238 138.71 159.45 138.798C159.662 138.886 159.855 139.014 160.017 139.177C160.179 139.339 160.308 139.531 160.395 139.743C160.483 139.955 160.528 140.183 160.527 140.412Z" fill="#FBC600"/>
<path d="M176.23 149.065C176.241 149.283 176.206 149.502 176.127 149.706C176.048 149.91 175.927 150.095 175.772 150.25C175.439 150.539 175.012 150.698 174.57 150.698C174.129 150.698 173.702 150.539 173.368 150.25C173.215 150.093 173.097 149.906 173.019 149.701C172.942 149.496 172.908 149.277 172.92 149.058V143.764H170.725V149.065C170.737 149.283 170.703 149.502 170.625 149.707C170.548 149.911 170.428 150.097 170.274 150.253C170.113 150.406 169.922 150.525 169.713 150.602C169.505 150.68 169.283 150.715 169.061 150.704C168.84 150.715 168.62 150.68 168.414 150.603C168.207 150.525 168.019 150.406 167.86 150.253C167.707 150.096 167.589 149.909 167.512 149.704C167.434 149.499 167.4 149.28 167.412 149.062V143.764H165.217V148.805C165.192 149.326 165.272 149.847 165.453 150.337C165.634 150.826 165.912 151.274 166.271 151.654C166.639 152.013 167.077 152.292 167.557 152.475C168.038 152.657 168.55 152.74 169.064 152.717C169.629 152.722 170.188 152.604 170.703 152.372C171.116 152.181 171.492 151.919 171.813 151.598C172.125 151.921 172.495 152.182 172.904 152.369C173.428 152.604 173.997 152.723 174.572 152.717C175.084 152.74 175.596 152.659 176.076 152.477C176.556 152.295 176.993 152.017 177.362 151.66C177.718 151.278 177.995 150.829 178.175 150.338C178.354 149.848 178.434 149.326 178.409 148.805V143.764H176.214L176.23 149.065Z" fill="#2F765F"/>
<path d="M188.388 145.058C187.94 144.638 187.412 144.309 186.836 144.093C185.66 143.654 184.364 143.654 183.188 144.093C182.615 144.312 182.09 144.64 181.642 145.058C181.192 145.47 180.83 145.968 180.576 146.522C180.329 147.064 180.202 147.652 180.203 148.247C180.202 148.849 180.328 149.445 180.573 149.996C180.827 150.552 181.191 151.05 181.642 151.463C182.092 151.879 182.616 152.205 183.188 152.425C183.768 152.649 184.384 152.763 185.006 152.761C185.631 152.764 186.251 152.652 186.836 152.432C187.411 152.215 187.937 151.888 188.385 151.469C188.834 151.062 189.192 150.566 189.437 150.012C189.682 149.458 189.809 148.859 189.808 148.253C189.808 147.657 189.683 147.067 189.442 146.522C189.195 145.967 188.836 145.469 188.388 145.058ZM187.558 148.231C187.565 148.566 187.503 148.898 187.375 149.207C187.247 149.517 187.056 149.796 186.815 150.027C186.331 150.499 185.682 150.764 185.006 150.764C184.33 150.764 183.681 150.499 183.197 150.027C182.955 149.796 182.763 149.517 182.635 149.208C182.506 148.898 182.444 148.566 182.451 148.231C182.444 147.898 182.506 147.567 182.635 147.26C182.763 146.953 182.955 146.676 183.197 146.447C183.682 145.977 184.332 145.714 185.007 145.714C185.683 145.714 186.332 145.977 186.818 146.447C187.058 146.677 187.248 146.954 187.376 147.261C187.503 147.568 187.565 147.898 187.558 148.231Z" fill="#2F765F"/>
<path d="M205.931 146.1L207.577 143.667H204.944L203.69 145.52C203.472 145.89 203.179 146.21 202.831 146.46C202.527 146.619 202.186 146.695 201.843 146.68H201.417V139.846H199.179V152.57H201.417V148.73H203.063C203.48 148.69 203.897 148.81 204.229 149.065C204.356 149.217 204.452 149.392 204.511 149.581C204.57 149.77 204.59 149.969 204.571 150.166V152.564H206.818V149.981C206.862 149.256 206.648 148.539 206.216 147.956C205.901 147.591 205.491 147.32 205.031 147.172C205.082 147.128 205.135 147.078 205.188 147.025C205.464 146.74 205.713 146.431 205.931 146.1Z" fill="#2F765F"/>
<path fill-rule="evenodd" clip-rule="evenodd" d="M143.998 0.941406C64.641 0.941843 0.30957 65.2735 0.30957 144.631C0.30957 144.631 0.30957 144.632 0.30957 144.632H52.3896C52.3896 144.632 52.3896 144.631 52.3896 144.631C52.3896 94.0365 93.404 53.0218 143.998 53.0214V0.941406Z" fill="#EBF2EF"/>
<path fill-rule="evenodd" clip-rule="evenodd" d="M143.998 288.322C64.641 288.322 0.30957 223.99 0.30957 144.633C0.30957 144.632 0.30957 144.632 0.30957 144.631H52.3896C52.3896 144.632 52.3896 144.632 52.3896 144.633C52.3896 195.227 93.404 236.242 143.998 236.242V288.322Z" fill="#3D7F69"/>
<path fill-rule="evenodd" clip-rule="evenodd" d="M144.002 0.941406C223.359 0.941843 287.69 65.2735 287.69 144.631C287.69 144.631 287.69 144.632 287.69 144.632H235.61C235.61 144.632 235.61 144.631 235.61 144.631C235.61 94.0365 194.596 53.0218 144.002 53.0214V0.941406Z" fill="#D9E6E1"/>
<path fill-rule="evenodd" clip-rule="evenodd" d="M144.002 288.322C223.359 288.322 287.69 223.99 287.69 144.633C287.69 144.632 287.69 144.632 287.69 144.631H235.61C235.61 144.632 235.61 144.632 235.61 144.633C235.61 195.227 194.596 236.242 144.002 236.242V288.322Z" fill="#B7D0C7"/>
<path d="M43.5244 79.7491L44.248 80.468L52.9136 71.8024L52.19 71.0835L43.5244 79.7491ZM45.9911 74.4187L47.6511 76.0679L48.5208 75.1981L46.8608 73.5489L45.9911 74.4187ZM46.1497 80.4331L46.8733 81.152L52.622 75.4032L54.8993 77.6655L55.7796 76.7852L52.7788 73.804L46.1497 80.4331ZM39.9451 73.8886L43.5419 77.4618L49.9271 71.0766L46.3303 67.5034L45.4499 68.3837L46.5354 69.462L41.9003 74.0971L40.8149 73.0188L39.9451 73.8886ZM42.592 74.7843L47.2271 70.1492L48.3444 71.2592L43.7093 75.8943L42.592 74.7843ZM52.2411 63.8836L53.8054 65.4376C55.4654 67.0868 56.1183 70.0401 55.3886 72.0851L56.6001 72.2737C57.3719 69.9957 56.5485 66.7462 54.516 64.727L52.9517 63.1729L52.2411 63.8836ZM52.4108 63.7139L53.9751 65.2679C55.9757 67.2554 59.0789 67.8857 61.3511 67.056L61.1473 65.8597C59.13 66.6678 56.3139 66.1748 54.6857 64.5573L53.1214 63.0032L52.4108 63.7139ZM49.62 65.7198L50.3649 66.4598L55.7212 61.1035L54.9763 60.3635L49.62 65.7198ZM55.2913 58.0969L64.9111 67.6537L65.7914 66.7734L56.1717 57.2165L55.2913 58.0969ZM62.6558 59.854L63.3688 60.5623L72.0344 51.8967L71.3214 51.1884L62.6558 59.854ZM68.5263 57.0594C66.4792 59.1065 65.8767 60.9818 66.9834 62.0812C68.0901 63.1807 69.9589 62.5635 72.006 60.5164C74.0531 58.4693 74.6662 56.6046 73.5595 55.5052C72.4528 54.4057 70.5734 55.0124 68.5263 57.0594ZM69.2286 57.7572C70.7348 56.251 71.9982 55.7301 72.6686 56.3961C73.3283 57.0516 72.8205 58.3231 71.3143 59.8292C69.8188 61.3248 68.5341 61.8457 67.8744 61.1903C67.204 60.5243 67.7331 59.2527 69.2286 57.7572ZM62.718 52.4097L63.0053 52.6952C64.0907 53.7735 63.3935 56.1889 61.8667 58.0975L62.8766 58.4665C64.626 56.2505 65.3332 53.4432 63.7902 51.9103L63.5028 51.6248L62.718 52.4097ZM63.0892 52.0385L63.3765 52.3239C64.9195 53.8568 67.7231 53.1533 69.9406 51.4025L69.5671 50.3971C67.6573 51.9251 65.2362 52.628 64.1508 51.5496L63.8635 51.2642L63.0892 52.0385ZM59.365 54.999L60.078 55.7073L67.1738 48.6115L66.4608 47.9032L59.365 54.999ZM74.3179 39.0491L83.9483 48.6165L84.8392 47.7256L75.2088 38.1582L74.3179 39.0491ZM78.8702 42.2819L79.6045 43.0114L81.3758 41.2401L80.6415 40.5106L78.8702 42.2819ZM72.9106 42.5353L73.0489 42.6727C75.5922 45.1994 76.3202 48.5655 75.02 52.5598L76.1889 52.7485C77.7218 48.0973 76.5046 44.3931 73.7697 41.6761L72.9106 42.5353ZM69.3786 46.0673L70.1022 46.7861L74.0903 42.7981L73.3667 42.0792L69.3786 46.0673Z" fill="#2F765F"/>
<path d="M58.7736 208.17L49.1956 217.811L50.076 218.691L59.654 209.05L58.7736 208.17ZM53.8546 204.736C52.4439 203.325 50.1254 203.616 48.0956 205.659C46.0553 207.713 45.7732 210.04 47.1838 211.451C48.6051 212.872 50.9237 212.581 52.964 210.527C54.9938 208.484 55.2759 206.157 53.8546 204.736ZM53.0617 205.534C54.0057 206.478 53.659 208.125 52.1155 209.679C50.5615 211.243 48.8996 211.618 47.9556 210.674C47.0222 209.74 47.3795 208.061 48.9335 206.497C50.477 204.943 52.1283 204.601 53.0617 205.534ZM56.8099 218.679L56.1016 219.392L61.617 224.908L58.9741 227.568L59.865 228.459L63.2163 225.086L56.8099 218.679ZM68.5309 217.948L62.8539 223.663L63.7448 224.554L69.4219 218.839L68.5309 217.948ZM63.7174 214.259C62.2643 212.806 60.2839 212.692 58.9413 214.044C57.6092 215.385 57.7396 217.361 59.1927 218.814C60.6352 220.256 62.605 220.38 63.937 219.04C65.2796 217.688 65.1599 215.702 63.7174 214.259ZM62.9668 215.015C63.9214 215.969 63.9976 217.276 63.0885 218.191C62.1899 219.096 60.8767 219.034 59.9221 218.079C58.9675 217.125 58.9018 215.808 59.8004 214.903C60.7096 213.988 62.0122 214.06 62.9668 215.015ZM66.7632 225.302L66.0549 226.015L74.7205 234.681L75.4288 233.968L66.7632 225.302ZM69.5578 231.173C67.5107 229.126 65.6354 228.523 64.5359 229.63C63.4365 230.737 64.0537 232.605 66.1008 234.653C68.1479 236.7 70.0126 237.313 71.112 236.206C72.2115 235.099 71.6048 233.22 69.5578 231.173ZM68.86 231.875C70.3662 233.381 70.8871 234.645 70.2211 235.315C69.5656 235.975 68.2941 235.467 66.788 233.961C65.2924 232.465 64.7715 231.181 65.4269 230.521C66.0929 229.85 67.3645 230.38 68.86 231.875ZM74.2075 225.364L73.922 225.652C72.8437 226.737 70.4282 226.04 68.5197 224.513L68.1507 225.523C70.3667 227.272 73.174 227.98 74.7069 226.437L74.9924 226.149L74.2075 225.364ZM74.5787 225.736L74.2933 226.023C72.7604 227.566 73.4639 230.37 75.2147 232.587L76.2201 232.214C74.6921 230.304 73.9892 227.883 75.0676 226.797L75.353 226.51L74.5787 225.736ZM71.6182 222.012L70.9099 222.724L78.0057 229.82L78.714 229.107L71.6182 222.012ZM87.5681 236.964L78.0006 246.595L78.8916 247.486L88.459 237.855L87.5681 236.964ZM84.3352 241.517L83.6058 242.251L85.3771 244.022L86.1065 243.288L84.3352 241.517ZM84.0819 235.557L83.9445 235.695C81.4178 238.239 78.0517 238.967 74.0574 237.666L73.8687 238.835C78.5199 240.368 82.2241 239.151 84.941 236.416L84.0819 235.557ZM80.5499 232.025L79.831 232.749L83.8191 236.737L84.538 236.013L80.5499 232.025Z" fill="white"/>
<path d="M223.96 46.2485L223.112 46.9173C221.604 48.1063 219.364 48.116 217.54 46.956L217.172 48.0676C219.215 49.3608 221.795 49.274 223.75 47.732L224.598 47.0632L223.96 46.2485ZM224.108 46.4374L223.26 47.1062C221.399 48.5739 220.795 51.0374 221.582 53.2823L222.745 53.1863C222.035 51.186 222.461 49.0542 223.898 47.921L224.746 47.2522L224.108 46.4374ZM228.913 50.3085L222.47 55.3897L223.247 56.3815L229.69 51.3004L228.913 50.3085ZM217.095 49.6953L216.294 50.327L221.104 56.4672L218.266 58.7059L219.043 59.6977L222.682 56.8274L217.095 49.6953ZM222.408 43.5373L221.619 44.1597L226.198 50.0047L226.987 49.3823L222.408 43.5373ZM228.354 60.6625L225.987 62.5296L226.755 63.5097L229.122 61.6426L228.354 60.6625ZM237.422 61.1711L229.319 67.5619L230.087 68.542L238.19 62.1511L237.422 61.1711ZM222.872 62.4454L222.071 63.0771L227.982 70.6224L228.783 69.9908L222.872 62.4454ZM225.169 60.6341L222.648 62.6219L223.416 63.602L225.936 61.6141L225.169 60.6341ZM225.676 57.9985C227.193 59.935 229.255 62.4931 231.423 64.5077L232.086 63.8702C230.016 61.8353 227.92 59.2089 226.375 57.2369L225.676 57.9985ZM229.431 63.9587L228.713 64.5254L230.609 66.946L231.327 66.3794L229.431 63.9587ZM233.582 57.1694C232.352 55.5989 230.789 55.1121 229.67 55.9946C228.54 56.8863 228.642 58.525 229.872 60.0954C231.093 61.6541 232.656 62.1409 233.787 61.2492C234.906 60.3667 234.803 58.728 233.582 57.1694ZM232.852 57.7453C233.629 58.7372 233.739 59.7776 233.056 60.3163C232.373 60.8551 231.391 60.5021 230.614 59.5102C229.828 58.5065 229.718 57.4662 230.401 56.9274C231.084 56.3886 232.066 56.7416 232.852 57.7453ZM246.163 72.3288L239.426 77.6421L240.157 78.575L246.894 73.2616L246.163 72.3288ZM241.918 72.8688L241.105 73.5098L242.687 75.5289L243.5 74.888L241.918 72.8688ZM244.166 70.217L238.018 75.0659L238.739 75.9869L244.887 71.138L244.166 70.217ZM238.536 65.2198L237.759 65.8329L241.996 71.241L242.773 70.6279L238.536 65.2198ZM239.345 68.9761C238.29 67.63 236.829 67.273 235.734 68.1369C234.627 69.0101 234.639 70.5096 235.694 71.8557C236.739 73.19 238.188 73.5562 239.295 72.683C240.391 71.8191 240.39 70.3104 239.345 68.9761ZM238.614 69.552C239.262 70.3786 239.27 71.289 238.611 71.8092C237.939 72.3387 237.071 72.1063 236.424 71.2798C235.767 70.4414 235.747 69.5402 236.418 69.0107C237.078 68.4905 237.958 68.7136 238.614 69.552ZM241.474 66.5134L239.849 67.7953L240.598 68.7517L242.223 67.4698L241.474 66.5134ZM237.231 75.2284C235.473 72.9849 233.777 72.1825 232.588 73.1207C231.41 74.0496 231.775 75.9016 233.532 78.1452C235.271 80.3651 236.988 81.1699 238.166 80.241C239.355 79.3028 238.97 77.4483 237.231 75.2284ZM236.477 75.8229C237.744 77.4406 238.114 78.7154 237.407 79.2727C236.701 79.8301 235.542 79.1776 234.274 77.5599C232.989 75.9186 232.64 74.6463 233.346 74.089C234.053 73.5316 235.191 74.1816 236.477 75.8229ZM242.866 79.4551L242.065 80.0867L249.623 89.7339L250.424 89.1023L242.866 79.4551ZM247.86 82.5464L246.023 83.9955L246.782 84.9638L248.619 83.5147L247.86 82.5464ZM241.871 81.9787L241.07 82.6104L246.084 89.0103L243.563 90.9982L244.331 91.9783L247.652 89.3587L241.871 81.9787ZM249.116 76.6085L245.135 79.7482L250.704 86.8567L254.684 83.717L253.917 82.7369L252.715 83.6844L248.673 78.5243L249.874 77.5768L249.116 76.6085ZM247.907 79.1281L251.95 84.2882L250.713 85.2635L246.671 80.1034L247.907 79.1281Z" fill="#2F765F"/>
<path d="M202.075 238.64L202.809 239.37L208.982 233.197L208.248 232.467L202.075 238.64ZM207.75 246.096L208.484 246.826L217.15 238.16L216.415 237.431L207.75 246.096ZM207.675 239.32L211.474 243.094L212.354 242.213L208.555 238.439L207.675 239.32ZM207.919 232.796L208.877 233.748C210.026 234.889 211.378 236.232 212.858 238.422L213.855 237.657C212.258 235.373 210.938 234.062 209.747 232.878L208.789 231.926L207.919 232.796ZM217.196 221.61L222.868 227.245L223.706 226.407L218.034 220.772L217.196 221.61ZM218.084 225.537L218.818 226.267L220.632 224.453L219.898 223.724L218.084 225.537ZM215.287 223.879L220.725 229.282L221.552 228.454L216.115 223.052L215.287 223.879ZM217.725 233.3L218.449 234.019L224.017 228.45L226.784 231.199L227.654 230.329L224.163 226.862L217.725 233.3ZM213.953 226.275L214.251 226.571C216.049 228.357 216.383 230.888 215.123 233.886L216.207 234.096C217.604 230.663 217.142 227.667 214.844 225.384L213.953 226.275ZM211.1 229.128L211.823 229.847L214.995 226.675L214.271 225.957L211.1 229.128ZM220.974 219.55L225.433 223.98L229.834 219.578L225.376 215.149L220.974 219.55ZM225.23 216.716L228.262 219.729L225.579 222.413L222.546 219.4L225.23 216.716ZM226.264 212.521L233.319 219.53L234.199 218.65L227.144 211.641L226.264 212.521ZM229.805 214.834L230.54 215.564L232.237 213.867L231.502 213.137L229.805 214.834ZM229.867 226.249L230.59 226.968L236.997 220.562L236.273 219.843L229.867 226.249ZM227.557 223.955L230.175 226.556L231.056 225.676L228.438 223.075L227.557 223.955ZM233.998 206.336L234.285 206.621C235.381 207.71 234.694 210.136 233.178 212.055L234.188 212.424C235.927 210.198 236.624 207.38 235.07 205.836L234.783 205.551L233.998 206.336ZM234.369 205.965L234.656 206.25C236.21 207.793 239.024 207.101 241.252 205.36L240.879 204.355C238.969 205.883 236.527 206.565 235.431 205.476L235.143 205.19L234.369 205.965ZM230.655 208.936L231.368 209.644L238.464 202.548L237.751 201.84L230.655 208.936ZM234.287 214.129L235.01 214.848L243.708 206.15L242.984 205.432L234.287 214.129ZM236.743 208.809L238.53 210.585L239.4 209.715L237.612 207.939L236.743 208.809ZM236.933 214.834L237.646 215.542L243.395 209.794L245.8 212.183L246.68 211.303L243.562 208.205L236.933 214.834Z" fill="#2F765F"/>
</svg>
