<svg width="53" height="53" viewBox="0 0 53 53" fill="none" xmlns="http://www.w3.org/2000/svg">
<path d="M51.0992 26.1831C54.1889 19.7441 53.1244 11.9551 48.425 6.74944C43.0116 0.738908 33.9893 -0.779953 26.9143 3.10158C20.3066 -0.442428 12.232 0.479274 6.76669 5.41232C0.937897 10.6699 -0.697799 19.2119 2.76832 26.235L2.54763 26.4557C1.53506 27.4683 0.989823 28.8054 0.989823 30.2334C0.989823 31.6614 1.54804 32.9985 2.54763 33.9981C3.5602 35.0106 4.89732 35.5559 6.32531 35.5559C6.49407 35.5559 6.64985 35.5559 6.80563 35.5299C6.66283 37.1007 7.22105 38.6585 8.33747 39.7749C9.4539 40.8913 10.9857 41.4885 12.5825 41.3068C12.4397 42.8776 12.9979 44.4354 14.1143 45.5518C15.1269 46.5644 16.464 47.1096 17.892 47.1096C18.0608 47.1096 18.2166 47.1096 18.3723 47.0836C18.2295 48.6544 18.7878 50.2122 19.9042 51.3286C20.9168 52.3412 22.2539 52.8865 23.6819 52.8865C24.8762 52.8865 26.0315 52.471 26.9792 51.7181C27.0052 51.7311 27.0311 51.7441 27.0441 51.757C27.9918 52.484 29.1212 52.8735 30.3025 52.8735C31.7175 52.8735 33.0547 52.3153 34.0672 51.3027C35.1837 50.1863 35.7419 48.6285 35.6121 47.0706C37.1569 47.2005 38.7277 46.6423 39.8441 45.5258C40.9605 44.4094 41.5187 42.8516 41.3889 41.2938C42.9597 41.4236 44.5175 40.8654 45.621 39.749C46.7374 38.6325 47.2956 37.0747 47.1658 35.5169C48.7106 35.6467 50.2814 35.0885 51.3978 33.9721C53.4749 31.895 53.4749 28.5068 51.3978 26.4297L51.1512 26.1831H51.0992ZM28.9395 4.86709C34.8981 2.06304 42.1419 3.51699 46.5686 8.42408C50.4112 12.6821 51.4368 18.8744 49.2039 24.2877L34.249 9.3328C34.0153 9.09913 33.7037 8.96931 33.3662 8.96931C33.0287 8.96931 32.7171 9.09913 32.4835 9.3328L24.0713 17.745C23.565 18.2512 22.838 18.5498 22.0721 18.5498C21.3062 18.5498 20.5792 18.2642 20.0729 17.745C19.5407 17.2127 19.2421 16.4987 19.2421 15.7458C19.2421 14.9928 19.5407 14.2788 20.0729 13.7466L28.9395 4.86709ZM6.31233 33.0374C5.5464 33.0374 4.81943 32.7518 4.31314 32.2325C3.2097 31.1291 3.2097 29.3376 4.31314 28.2342L7.41577 25.1315C7.94802 24.5993 8.66202 24.3007 9.41496 24.3007C10.1679 24.3007 10.8819 24.5993 11.4141 25.1315C11.9464 25.6638 12.245 26.3778 12.245 27.1307C12.245 27.8837 11.9464 28.5977 11.4141 29.1299L8.31151 32.2325C7.80522 32.7388 7.07825 33.0374 6.31233 33.0374ZM12.0892 38.8143C11.3233 38.8143 10.5963 38.5287 10.09 38.0094C8.98656 36.906 8.98656 35.1145 10.09 34.011L13.1797 30.9084C13.7119 30.3762 14.4259 30.0776 15.1788 30.0776C15.9318 30.0776 16.6458 30.3762 17.178 30.9084C17.7103 31.4407 18.0088 32.1547 18.0088 32.9076C18.0088 33.6605 17.7103 34.3745 17.178 34.9068L14.0754 38.0094C13.5691 38.5157 12.8421 38.8143 12.0762 38.8143H12.0892ZM15.8669 43.7863C14.7634 42.6828 14.7634 40.8913 15.8669 39.7879L18.9695 36.6853C19.5017 36.153 20.2157 35.8544 20.9687 35.8544C21.7216 35.8544 22.4356 36.153 22.9679 36.6853C23.5001 37.2175 23.7987 37.9315 23.7987 38.6845C23.7987 39.4374 23.5001 40.1514 22.9679 40.6836L19.8652 43.7863C18.8007 44.8508 16.9314 44.8508 15.8669 43.7863ZM25.6421 49.5631C25.1358 50.0694 24.4088 50.368 23.6429 50.368C22.877 50.368 22.15 50.0824 21.6437 49.5631C21.1115 49.0309 20.8129 48.3169 20.8129 47.564C20.8129 46.811 21.1115 46.097 21.6437 45.5648L24.7464 42.4621C25.2786 41.9299 25.9926 41.6313 26.7455 41.6313C27.4985 41.6313 28.2125 41.9299 28.7447 42.4621C29.277 42.9944 29.5756 43.7084 29.5756 44.4613C29.5756 45.2143 29.277 45.9283 28.7447 46.4605L25.6421 49.5631ZM32.2628 49.5372C31.3411 50.4589 29.9001 50.6147 28.7967 49.9526L30.5102 48.239C31.3411 47.4082 31.8603 46.3437 32.0161 45.1883C32.081 45.3181 32.1589 45.422 32.2628 45.5258C33.3662 46.6293 33.3662 48.4207 32.2628 49.5242V49.5372ZM49.5804 32.2196C49.0741 32.7259 48.3471 33.0244 47.5812 33.0244C46.8153 33.0244 46.0883 32.7388 45.582 32.2196C45.1017 31.7522 44.2838 31.7522 43.8165 32.2196C43.5828 32.4532 43.453 32.7648 43.453 33.1023C43.453 33.4398 43.5828 33.7514 43.8165 33.9851C44.3487 34.5173 44.6473 35.2313 44.6473 35.9843C44.6473 36.7372 44.3487 37.4512 43.8165 37.9834C43.3102 38.4897 42.5832 38.7883 41.8173 38.7883C41.0514 38.7883 40.3244 38.5027 39.8181 37.9834C39.3378 37.5161 38.52 37.5161 38.0526 37.9834C37.8189 38.2171 37.6891 38.5287 37.6891 38.8662C37.6891 39.2037 37.8189 39.5153 38.0526 39.749C39.1561 40.8524 39.1561 42.6439 38.0526 43.7473C36.9881 44.8118 35.1187 44.8118 34.0542 43.7473C33.8206 43.5137 33.509 43.3838 33.1715 43.3838C32.834 43.3838 32.5224 43.5137 32.2887 43.7473C32.1979 43.8252 32.133 43.9291 32.081 44.0199C31.9772 42.7607 31.4449 41.5794 30.5362 40.6707C29.4328 39.5672 27.875 39.009 26.2912 39.1388C26.3042 38.983 26.3171 38.8273 26.3171 38.6585C26.3171 37.2305 25.7589 35.8934 24.7593 34.8808C23.6559 33.7774 22.0851 33.2192 20.5143 33.349C20.5273 33.1932 20.5403 33.0374 20.5403 32.8687C20.5403 31.4407 19.9821 30.1035 18.9825 29.091C17.879 27.9875 16.2953 27.4293 14.7375 27.5591C14.7504 27.4033 14.7634 27.2476 14.7634 27.0788C14.7634 25.6508 14.2052 24.3137 13.2056 23.3011C12.193 22.3015 10.8559 21.7433 9.42794 21.7433C7.99995 21.7433 6.66283 22.3015 5.66324 23.3011L4.67663 24.2877C2.15818 18.3681 3.65107 11.5527 8.48027 7.2038C13.0758 3.06263 19.6186 2.20584 25.2526 4.98393L18.3204 11.9162C17.3078 12.9287 16.7626 14.2659 16.7626 15.6938C16.7626 17.1218 17.3208 18.4589 18.3204 19.4715C19.333 20.4841 20.6701 21.0293 22.0851 21.0293C23.5001 21.0293 24.8502 20.4711 25.8628 19.4715L33.3922 11.9421L49.6063 28.1563C50.1386 28.6885 50.4372 29.4025 50.4372 30.1555C50.4372 30.9084 50.1386 31.6224 49.6063 32.1547L49.5804 32.2196Z" fill="#3E806A"/>
</svg>
