<svg width="48" height="64" viewBox="0 0 48 64" fill="none" xmlns="http://www.w3.org/2000/svg">
<path d="M46.984 18.2845C46.7745 17.8263 46.3293 17.5382 45.8318 17.5382H30.8669V12.8511C30.8669 12.144 30.3039 11.5811 29.5969 11.5811H13.1001V8.85778C14.7105 8.32098 15.8888 6.81532 15.8888 5.02162C15.8888 2.78277 14.069 0.962891 11.8301 0.962891C9.59126 0.962891 7.77137 2.78277 7.77137 5.02162C7.77137 6.81532 8.94971 8.32098 10.5601 8.85778V56.201H7.16911C3.64718 56.201 0.792969 59.0552 0.792969 62.5771C0.792969 63.2841 1.35595 63.8471 2.06296 63.8471H21.5973C22.3043 63.8471 22.8672 63.2841 22.8672 62.5771C22.8672 59.0552 20.013 56.201 16.4911 56.201H13.1001V30.9975H19.5679V35.6847C19.5679 35.6847 19.5941 35.7633 19.5941 35.8025C19.5941 35.8942 19.6203 35.9727 19.6464 36.0513C19.6726 36.1299 19.6988 36.2084 19.7512 36.287C19.7774 36.3262 19.7774 36.3655 19.8036 36.3917C19.8428 36.4441 19.8821 36.4834 19.9214 36.5226C19.9476 36.5488 19.9607 36.575 19.9738 36.5881C20.0785 36.6797 20.1963 36.7583 20.3273 36.8238C20.3534 36.8238 20.3796 36.85 20.4058 36.85C20.5498 36.9023 20.6939 36.9416 20.851 36.9416H45.8449C46.3424 36.9416 46.8007 36.6536 46.9971 36.1953C47.1935 35.7371 47.128 35.2134 46.8007 34.8337L40.1758 27.2268L46.8007 19.62C47.128 19.2403 47.2066 18.7166 46.9971 18.2583L46.984 18.2845ZM16.4911 58.7409C18.1539 58.7409 19.581 59.8145 20.1047 61.3071H3.55553C4.07923 59.8145 5.50634 58.7409 7.16911 58.7409H16.4911ZM11.8301 6.52728C10.9922 6.52728 10.3114 5.84646 10.3114 5.00853C10.3114 4.1706 10.9922 3.48978 11.8301 3.48978C12.668 3.48978 13.3489 4.1706 13.3489 5.00853C13.3489 5.84646 12.668 6.52728 11.8301 6.52728ZM13.1001 28.4444V14.121H28.3138V18.8082V28.4444H13.1001ZM22.1079 30.9844H25.4727L22.1079 33.2757V30.9844ZM37.518 26.402C37.099 26.8864 37.099 27.5934 37.518 28.0779L43.0431 34.4147H24.9621L30.3039 30.7749C30.3039 30.7749 30.3563 30.7226 30.3825 30.6964C30.4479 30.644 30.5134 30.5786 30.5657 30.5131C30.6181 30.4476 30.6574 30.3822 30.6967 30.3167C30.736 30.2512 30.7621 30.1727 30.7883 30.0941C30.8145 30.0156 30.8276 29.9239 30.8407 29.8454C30.8407 29.8061 30.8669 29.7668 30.8669 29.7275V20.0782H43.0431L37.518 26.4151V26.402Z" fill="#3E806A"/>
</svg>
