<svg width="49" height="63" viewBox="0 0 49 63" fill="none" xmlns="http://www.w3.org/2000/svg">
<path d="M41.3932 61.0907V44.8909C42.4676 42.7979 48.3838 30.8259 48.3838 22.6353V21.519C48.3838 10.0075 39.0072 0.630859 27.4817 0.630859C15.9563 0.630859 6.59358 10.0075 6.59358 21.533V22.6771L0.677366 35.7375C0.482019 36.1561 0.523879 36.6444 0.775039 37.0351C1.0262 37.4258 1.45875 37.6491 1.91921 37.6491H6.60754V44.6118C6.60754 48.3094 9.60751 51.3094 13.3051 51.3094H17.7284V61.0767C17.7284 61.8302 18.3283 62.4302 19.0818 62.4302C19.8353 62.4302 20.4353 61.8302 20.4353 61.0767V51.3094H21.9423C22.6957 51.3094 23.2957 50.7094 23.2957 49.9559C23.2957 49.2024 22.6957 48.6025 21.9423 48.6025H13.3051C11.1005 48.6025 9.31449 46.8164 9.31449 44.6118V36.2956C9.31449 35.5421 8.71449 34.9421 7.96101 34.9421H3.99826L9.17495 23.5143C9.25867 23.3329 9.30053 23.1516 9.30053 22.9562V21.533C9.30053 11.5005 17.4493 3.33781 27.4817 3.33781C37.5142 3.33781 45.6629 11.5005 45.6629 21.519V22.6353C45.6629 30.784 38.8956 43.8025 38.8258 43.9281C38.7281 44.1234 38.6723 44.3327 38.6723 44.556V61.0767C38.6723 61.8302 39.2723 62.4302 40.0258 62.4302C40.7793 62.4302 41.3793 61.8302 41.3793 61.0767L41.3932 61.0907Z" fill="#3E806A"/>
<path d="M27.1894 18.5736C27.9429 18.5736 28.5429 17.9736 28.5429 17.2201V9.40621C28.5429 8.65273 27.9429 8.05273 27.1894 8.05273C26.4359 8.05273 25.8359 8.65273 25.8359 9.40621V17.2201C25.8359 17.9736 26.4359 18.5736 27.1894 18.5736Z" fill="#3E806A"/>
<path d="M28.5429 24.6171C28.5429 23.8637 27.9429 23.2637 27.1894 23.2637C26.4359 23.2637 25.8359 23.8637 25.8359 24.6171V32.431C25.8359 33.1845 26.4359 33.7845 27.1894 33.7845C27.9429 33.7845 28.5429 33.1845 28.5429 32.431V24.6171Z" fill="#3E806A"/>
<path d="M29.5195 20.9179C29.5195 21.6714 30.1195 22.2714 30.873 22.2714H38.6869C39.4404 22.2714 40.0404 21.6714 40.0404 20.9179C40.0404 20.1644 39.4404 19.5645 38.6869 19.5645H30.873C30.1195 19.5645 29.5195 20.1644 29.5195 20.9179Z" fill="#3E806A"/>
<path d="M23.4916 19.5645H15.6777C14.9242 19.5645 14.3242 20.1644 14.3242 20.9179C14.3242 21.6714 14.9242 22.2714 15.6777 22.2714H23.4916C24.245 22.2714 24.845 21.6714 24.845 20.9179C24.845 20.1644 24.245 19.5645 23.4916 19.5645Z" fill="#3E806A"/>
<path d="M33.4382 16.5796L36.2847 13.7331C36.8149 13.2029 36.8149 12.3517 36.2847 11.8215C35.7544 11.2913 34.9033 11.2913 34.3731 11.8215L31.5266 14.668C30.9963 15.1982 30.9963 16.0494 31.5266 16.5796C31.7917 16.8447 32.1405 16.9703 32.4894 16.9703C32.8382 16.9703 33.187 16.8447 33.4521 16.5796H33.4382Z" fill="#3E806A"/>
<path d="M20.9395 25.2512L18.093 28.0977C17.5628 28.6279 17.5628 29.479 18.093 30.0093C18.3581 30.2744 18.7069 30.4 19.0558 30.4C19.4046 30.4 19.7534 30.2744 20.0185 30.0093L22.865 27.1628C23.3953 26.6326 23.3953 25.7814 22.865 25.2512C22.3348 24.721 21.4836 24.721 20.9534 25.2512H20.9395Z" fill="#3E806A"/>
<path d="M31.5149 25.2512C30.9846 25.7814 30.9846 26.6326 31.5149 27.1628L34.3613 30.0093C34.6265 30.2744 34.9753 30.4 35.3241 30.4C35.673 30.4 36.0218 30.2744 36.2869 30.0093C36.8171 29.479 36.8171 28.6279 36.2869 28.0977L33.4404 25.2512C32.9102 24.721 32.059 24.721 31.5288 25.2512H31.5149Z" fill="#3E806A"/>
<path d="M21.8883 16.982C22.2371 16.982 22.586 16.8564 22.8511 16.5913C23.3813 16.0611 23.3813 15.2099 22.8511 14.6797L20.0046 11.8332C19.4744 11.303 18.6232 11.303 18.093 11.8332C17.5628 12.3634 17.5628 13.2146 18.093 13.7448L20.9395 16.5913C21.2046 16.8564 21.5534 16.982 21.9022 16.982H21.8883Z" fill="#3E806A"/>
</svg>
