<svg width="53" height="52" viewBox="0 0 53 52" fill="none" xmlns="http://www.w3.org/2000/svg">
<path d="M31.7818 25.1714C31.4249 25.0921 31.0681 25.1714 30.7642 25.3564C30.4602 25.5546 30.2488 25.8586 30.1695 26.2154C30.0902 26.5722 30.1695 26.929 30.3545 27.233C30.5527 27.537 30.8567 27.7484 31.2135 27.8277C41.2573 29.995 48.6712 38.6644 49.2923 48.9329H3.38164C3.98955 38.6644 11.4167 29.995 21.4605 27.8277C21.8173 27.7484 22.1212 27.537 22.3195 27.233C22.5177 26.929 22.5838 26.559 22.5045 26.2154C22.4252 25.8586 22.2137 25.5546 21.9098 25.3564C21.6058 25.1582 21.249 25.0921 20.8922 25.1714C9.15681 27.7088 0.632812 38.2679 0.632812 50.2808C0.632812 51.0341 1.24073 51.642 1.99401 51.642H50.6799C51.4332 51.642 52.0411 51.0341 52.0411 50.2808C52.0411 38.2679 43.5171 27.7088 31.7818 25.1714V25.1714Z" fill="#3E806A"/>
<path d="M22.9524 20.8073C23.7321 20.8073 24.4193 20.7677 24.9744 20.7281V32.5824C24.9744 33.3357 25.5823 33.9436 26.3356 33.9436C27.0888 33.9436 27.6968 33.3357 27.6968 32.5824V20.7281C28.2518 20.7677 28.939 20.8073 29.7187 20.8073C36.1018 20.8073 39.5643 18.6797 41.3484 16.9088C46.5289 11.7283 45.0752 2.1867 45.0223 1.79023C44.9298 1.20875 44.4805 0.759423 43.899 0.666915C43.5025 0.600837 34.0006 -0.8793 28.7804 4.34083C27.6968 5.4245 26.917 6.69319 26.3488 8.02795C25.7673 6.69319 24.9876 5.4245 23.9171 4.34083C18.697 -0.8793 9.18183 0.600837 8.78537 0.666915C8.20389 0.759423 7.75456 1.20875 7.66205 1.79023C7.59597 2.19991 6.14227 11.7283 11.336 16.9088C13.1201 18.6929 16.5825 20.8073 22.9656 20.8073H22.9524ZM36.0225 11.5697C36.5512 11.0411 36.5512 10.1821 36.0225 9.65346C35.4939 9.12484 34.6349 9.12484 34.1063 9.65346L27.8025 15.9573C27.8025 15.2568 27.7761 14.4903 27.6968 13.671C27.9479 11.1204 28.7144 8.21297 30.6835 6.24386C34.0006 2.92677 39.974 3.01928 42.4453 3.23072C42.6435 5.70202 42.7492 11.6622 39.4321 14.9925C36.7758 17.6488 32.4147 18.1114 29.5073 18.0982L36.0225 11.5829V11.5697ZM24.8686 15.9573L18.5648 9.65346C18.0362 9.12484 17.1772 9.12484 16.6486 9.65346C16.12 10.1821 16.12 11.0411 16.6486 11.5697L23.1638 18.085C20.2696 18.1114 15.8953 17.6488 13.239 14.9925C9.9219 11.6754 10.0144 5.70202 10.2259 3.23072C17.4812 2.59638 20.8643 5.13376 21.9877 6.24386C23.9568 8.21297 24.7233 11.1204 24.9744 13.671C24.8951 14.4903 24.8686 15.2568 24.8686 15.9573V15.9573Z" fill="#3E806A"/>
</svg>
