<svg width="64" height="64" viewBox="0 0 64 64" fill="none" xmlns="http://www.w3.org/2000/svg">
<path d="M39.9883 22.4096L39.6289 22.0527" stroke="#3E806A" stroke-width="3" stroke-linecap="round" stroke-linejoin="round"/>
<path d="M37.6172 20.0762C37.6577 20.1116 37.7007 20.1369 37.7387 20.1749L39.6268 22.0528" stroke="#3E806A" stroke-width="3" stroke-linecap="round" stroke-linejoin="round"/>
<path d="M39.9883 22.4082L40.0073 22.4272" stroke="#3E806A" stroke-width="3" stroke-linecap="round" stroke-linejoin="round"/>
<path d="M23.3281 41.6738V41.6765L23.339 41.6847" stroke="#3E806A" stroke-width="3" stroke-linecap="round" stroke-linejoin="round"/>
<path d="M23.7055 42.05L23.3359 41.6855" stroke="#3E806A" stroke-width="3" stroke-linecap="round" stroke-linejoin="round"/>
<path d="M41.7344 24.1543L49.1273 31.5092C49.2361 31.6181 49.3348 31.737 49.4386 31.8509" stroke="#3E806A" stroke-width="3" stroke-linecap="round" stroke-linejoin="round"/>
<path d="M25.7115 44.0319L23.707 42.0527" stroke="#3E806A" stroke-width="3" stroke-linecap="round" stroke-linejoin="round"/>
<path d="M25.7109 44.0293L28.5 46.7779L30.0161 48.2864C30.578 48.8457 31.2031 49.3291 31.8662 49.7391" stroke="#3E806A" stroke-width="3" stroke-linecap="round" stroke-linejoin="round"/>
<path d="M21.5948 39.9564L14.2019 32.6014C14.0931 32.4926 13.9944 32.3737 13.8906 32.2598" stroke="#3E806A" stroke-width="3" stroke-linecap="round" stroke-linejoin="round"/>
<path d="M21.5938 39.9551L23.3275 41.6787" stroke="#3E806A" stroke-width="3" stroke-linecap="round" stroke-linejoin="round"/>
<path d="M13.8922 32.2548C12.1382 30.3465 11.1512 27.8585 11.1512 25.2643L7.55469 21.6855" stroke="#3E806A" stroke-width="3" stroke-linecap="round" stroke-linejoin="round"/>
<path d="M23.3281 41.6738L23.339 41.6847" stroke="#3E806A" stroke-width="3" stroke-linecap="round" stroke-linejoin="round"/>
<path d="M23.7031 42.0527L25.5912 43.9307C25.6292 43.9687 25.6722 43.994 25.7127 44.0294" stroke="#3E806A" stroke-width="3" stroke-linecap="round" stroke-linejoin="round"/>
<path d="M23.7004 42.05L23.3359 41.6855" stroke="#3E806A" stroke-width="3" stroke-linecap="round" stroke-linejoin="round"/>
<path d="M20.5039 10.2324L23.3816 13.0949L24.9963 12.9152C27.2767 12.6621 29.5495 13.1911 31.4629 14.3655" stroke="#3E806A" stroke-width="3" stroke-linecap="round" stroke-linejoin="round"/>
<path d="M39.625 22.0527L39.9869 22.4096" stroke="#3E806A" stroke-width="3" stroke-linecap="round" stroke-linejoin="round"/>
<path d="M39.6242 22.0528L37.6172 20.0762" stroke="#3E806A" stroke-width="3" stroke-linecap="round" stroke-linejoin="round"/>
<path d="M31.4609 14.3691C32.1266 14.7766 32.7492 15.26 33.3111 15.8219L34.8271 17.3304L37.6162 20.079" stroke="#3E806A" stroke-width="3" stroke-linecap="round" stroke-linejoin="round"/>
<path d="M42.1117 24.5215L40.0035 22.4259L39.9883 22.4082" stroke="#3E806A" stroke-width="3" stroke-linecap="round" stroke-linejoin="round"/>
<path d="M1.79688 18.8184L6.11215 23.1134L7.55226 21.6809" stroke="#3E806A" stroke-width="3" stroke-linecap="round" stroke-linejoin="round"/>
<path d="M7.55469 21.6835L21.2244 8.08213L16.9065 3.78711" stroke="#3E806A" stroke-width="3" stroke-linecap="round" stroke-linejoin="round"/>
<path d="M53.5933 20.9473L50.7156 23.8098L50.8953 25.4169C51.1484 27.6872 50.6195 29.9473 49.4375 31.8531" stroke="#3E806A" stroke-width="3" stroke-linecap="round" stroke-linejoin="round"/>
<path d="M42.0833 8.06055L38.4869 11.6393C35.8774 11.6393 33.3769 12.6238 31.4609 14.3677" stroke="#3E806A" stroke-width="3" stroke-linecap="round" stroke-linejoin="round"/>
<path d="M23.7031 42.0527C23.7031 42.0527 23.7055 42.0527 23.7079 42.0527" stroke="#3E806A" stroke-width="3" stroke-linecap="round" stroke-linejoin="round"/>
<path d="M42.086 8.05995L40.6484 6.62743L45.3358 1.96289" stroke="#3E806A" stroke-width="3" stroke-linecap="round" stroke-linejoin="round"/>
<path d="M42.0859 8.06055L55.7556 21.6619L60.4429 16.9973" stroke="#3E806A" stroke-width="3" stroke-linecap="round" stroke-linejoin="round"/>
<path d="M39.625 22.0527C39.625 22.0527 39.6274 22.0527 39.6298 22.0527" stroke="#3E806A" stroke-width="3" stroke-linecap="round" stroke-linejoin="round"/>
<path d="M9.73438 43.1578L12.6121 40.2953L12.4324 38.6882C12.1793 36.4179 12.7082 34.1578 13.8902 32.252" stroke="#3E806A" stroke-width="3" stroke-linecap="round" stroke-linejoin="round"/>
<path d="M31.8685 49.7402C29.9526 51.4841 27.452 52.4686 24.8426 52.4686L21.2461 56.0474" stroke="#3E806A" stroke-width="3" stroke-linecap="round" stroke-linejoin="round"/>
<path d="M21.2444 56.0447L7.5747 42.4434L2.91016 47.0851" stroke="#3E806A" stroke-width="3" stroke-linecap="round" stroke-linejoin="round"/>
<path d="M21.244 56.0449L22.6841 57.4774L18.0195 62.1192" stroke="#3E806A" stroke-width="3" stroke-linecap="round" stroke-linejoin="round"/>
<path d="M55.7773 42.419L52.1808 38.8403C52.1808 36.0891 51.0824 33.4519 49.1285 31.5081L37.7392 20.1745C36.7749 19.2153 35.2133 19.2153 34.249 20.1745L34.2035 20.2201C33.2012 21.2173 33.1987 22.8168 34.1908 23.8064C36.6256 26.2285 40.6675 30.2502 40.6675 30.2502L30.9031 20.5314C29.9388 19.5721 28.3772 19.5721 27.4129 20.5314L27.3674 20.5769C26.3651 21.5741 26.3601 23.1711 27.3522 24.1607C30.2476 27.041 35.6309 32.399 35.6309 32.399L25.9197 22.7358C24.9275 21.7462 23.3153 21.7462 22.3232 22.7358C21.3311 23.7254 21.3311 25.3275 22.3232 26.3146L32.0344 35.9778L23.7076 27.6914C22.7433 26.7322 21.1817 26.7322 20.2174 27.6914L20.1719 27.737C19.1696 28.7342 19.1671 30.3363 20.1618 31.3233C24.0215 35.1628 32.7532 43.8515 32.7532 43.8515L27.4711 38.5973C26.4132 37.5469 24.7023 37.5469 23.6443 38.5973L23.3179 38.9238C22.5535 39.6856 22.556 40.9207 23.3254 41.6775L28.4987 46.7773L30.0147 48.2858C32.2015 50.4598 35.2614 51.5279 38.3315 51.1888L39.9462 51.0091L42.8239 53.8716" stroke="#3E806A" stroke-width="3" stroke-linecap="round" stroke-linejoin="round"/>
<path d="M46.4233 60.3166L42.1055 56.0215L57.2127 40.9902L61.5305 45.2853" stroke="#3E806A" stroke-width="3" stroke-linecap="round" stroke-linejoin="round"/>
</svg>
