<svg width="29" height="36" viewBox="0 0 29 36" fill="none" xmlns="http://www.w3.org/2000/svg">
<path d="M6.57094 11.6532C6.57094 11.2076 6.9328 10.8458 7.37507 10.8458H21.5613C22.0036 10.8458 22.3655 11.2076 22.3655 11.6532C22.3655 12.0989 22.0036 12.4574 21.5613 12.4574H7.37507C6.9328 12.4574 6.57094 12.0955 6.57094 11.6532ZM7.37507 16.8902H21.5613C22.0036 16.8902 22.3655 16.5283 22.3655 16.0827C22.3655 15.637 22.0036 15.2785 21.5613 15.2785H7.37507C6.9328 15.2785 6.57094 15.6404 6.57094 16.0827C6.57094 16.5249 6.9328 16.8902 7.37507 16.8902ZM7.37507 8.02458H21.5613C22.0036 8.02458 22.3655 7.66272 22.3655 7.22045C22.3655 6.77818 22.0036 6.41296 21.5613 6.41296H7.37507C6.9328 6.41296 6.57094 6.77483 6.57094 7.22045C6.57094 7.66607 6.9328 8.02458 7.37507 8.02458ZM7.37507 21.3229H21.5613C22.0036 21.3229 22.3655 20.9611 22.3655 20.5155C22.3655 20.0698 22.0036 19.7113 21.5613 19.7113H7.37507C6.9328 19.7113 6.57094 20.0732 6.57094 20.5155C6.57094 20.9577 6.9328 21.3229 7.37507 21.3229ZM28.4534 2.29178V33.1035C28.4534 34.3667 27.4248 35.3953 26.1616 35.3953H10.213C9.91479 35.3953 9.57639 35.3484 9.20448 35.2613C8.21941 35.02 7.20419 34.4906 6.62455 33.9076L1.97733 29.2604C1.62217 28.9019 1.28711 28.3926 1.03247 27.8331C0.771125 27.2735 0.586845 26.6637 0.516483 26.1008C0.49638 25.9367 0.486328 25.7959 0.486328 25.6686V2.29178C0.486328 1.02862 1.5183 0 2.78146 0H26.1583C27.4215 0 28.4501 1.02862 28.4501 2.29178H28.4534ZM25.8366 2.61343H3.10311V24.8812H8.49081C9.57304 24.8812 10.4609 25.7691 10.4609 26.8514V32.7818H25.8333V2.61343H25.8366Z" fill="white"/>
</svg>
