<svg width="41" height="37" viewBox="0 0 41 37" fill="none" xmlns="http://www.w3.org/2000/svg">
<path d="M36.4889 9.68402H30.3307V5.2539C30.3307 2.35785 28.1633 0 25.4979 0H15.3342C12.6688 0 10.5014 2.35785 10.5014 5.2539V9.68402H4.3468C2.33311 9.68402 0.685547 11.3316 0.685547 13.3453V17.6106C0.685547 19.6243 2.33311 21.2719 4.3468 21.2719H9.05883V19.7415C9.05883 18.7346 9.88262 17.9109 10.8895 17.9109H12.3759C13.3828 17.9109 14.2066 18.7346 14.2066 19.7415V21.2719H26.6329V19.7415C26.6329 18.7346 27.4566 17.9109 28.4635 17.9109H29.9499C30.9568 17.9109 31.7806 18.7346 31.7806 19.7415V21.2719H36.4926C38.5063 21.2719 40.1539 19.6243 40.1539 17.6106V13.3453C40.1539 11.3316 38.5063 9.68402 36.4926 9.68402H36.4889ZM14.0052 9.68402V5.2539C14.0052 4.30563 14.6166 3.50382 15.3379 3.50382H25.5015C26.2228 3.50382 26.8342 4.30563 26.8342 5.2539V9.68402H14.0088H14.0052ZM40.1502 21.6929V32.8561C40.1502 34.8698 38.5026 36.5173 36.4889 36.5173H4.3468C2.33311 36.5173 0.685547 34.8698 0.685547 32.8561V21.6929C1.65944 22.568 2.94088 23.1025 4.3468 23.1025H9.05883V24.2668C9.05883 25.2736 9.88262 26.0974 10.8895 26.0974H12.3759C13.3828 26.0974 14.2066 25.2736 14.2066 24.2668V23.1025H26.6329V24.2668C26.6329 25.2736 27.4566 26.0974 28.4635 26.0974H29.9499C30.9568 26.0974 31.7806 25.2736 31.7806 24.2668V23.1025H36.4926C37.8985 23.1025 39.18 22.5643 40.1539 21.6929H40.1502Z" fill="white"/>
</svg>
