<svg width="42" height="37" viewBox="0 0 42 37" fill="none" xmlns="http://www.w3.org/2000/svg">
<path d="M20.0737 20.3804C20.0737 20.8112 19.7222 21.1626 19.2914 21.1626H16.1586C15.7278 21.1626 15.3763 20.8112 15.3763 20.3804V15.3278C15.3763 14.897 15.7278 14.5455 16.1586 14.5455H19.2914C19.7222 14.5455 20.0737 14.897 20.0737 15.3278V20.3804ZM26.1428 7.90575C26.1428 7.47494 25.7914 7.12349 25.3606 7.12349H22.2277C21.7969 7.12349 21.4455 7.47494 21.4455 7.90575V20.3804C21.4455 20.8112 21.7969 21.1626 22.2277 21.1626H25.3606C25.7914 21.1626 26.1428 20.8112 26.1428 20.3804V7.90575ZM32.212 12.5086C32.212 12.0778 31.8605 11.7264 31.4297 11.7264H28.2969C27.8661 11.7264 27.5146 12.0778 27.5146 12.5086V20.3804C27.5146 20.8112 27.8661 21.1626 28.2969 21.1626H31.4297C31.8605 21.1626 32.212 20.8112 32.212 20.3804V12.5086ZM14.0083 12.5086C14.0083 12.0778 13.6569 11.7264 13.2261 11.7264H10.0932C9.66244 11.7264 9.31099 12.0778 9.31099 12.5086V20.3804C9.31099 20.8112 9.66244 21.1626 10.0932 21.1626H13.2261C13.6569 21.1626 14.0083 20.8112 14.0083 20.3804V12.5086ZM41.1267 3.73747V25.055C41.1267 27.1108 39.6416 28.7963 37.8314 28.7963H25.8896V33.2782H28.1646C29.9748 33.2782 32.4652 33.9811 33.6934 34.839C34.9253 35.693 34.4492 36.3959 32.6352 36.3959H8.84616C7.03222 36.3959 6.55607 35.693 7.78803 34.839C9.01622 33.9811 11.5066 33.2782 13.3168 33.2782H15.622V28.7963H3.684C1.87006 28.7963 0.388672 27.1108 0.388672 25.055V3.73747C0.388672 1.68545 1.87006 0 3.684 0H37.8314C39.6416 0 41.1267 1.68545 41.1267 3.73747ZM38.1111 3.79038H3.40435V25.1231H38.1111V3.7866V3.79038Z" fill="white"/>
</svg>
