<svg width="42" height="37" viewBox="0 0 42 37" fill="none" xmlns="http://www.w3.org/2000/svg">
<g clip-path="url(#clip0_12_3354)">
<path fill-rule="evenodd" clip-rule="evenodd" d="M14.8726 22.7278C15.232 23.0979 15.6867 23.3716 16.161 23.5754C17.9727 24.3534 21.4407 24.1979 21.7969 21.8754C22.0912 19.9553 19.2403 18.9452 17.7815 18.6003C15.0695 17.9593 12.0177 16.0715 12.5035 12.9244C12.8627 10.5984 14.9512 9.28706 17.1625 8.99066V7.23862C17.1625 6.92862 17.4197 6.67578 17.735 6.67578H19.2083C19.5236 6.67578 19.7808 6.92862 19.7808 7.23862V9.05228C21.3774 9.30916 22.9032 9.98758 23.823 11.361C23.9323 11.5244 23.968 11.7114 23.9258 11.9024C23.8837 12.0936 23.773 12.2491 23.6047 12.3535L22.5712 12.9943C22.23 13.2059 21.7779 13.102 21.5678 12.7633C20.8516 11.6087 19.4961 11.3618 18.2202 11.3618C17.0357 11.3618 15.3217 11.8658 15.1265 13.218C14.8927 14.8396 17.1558 15.7043 18.4169 15.985C21.2516 16.6158 24.7667 18.3532 24.4698 21.7171C24.2355 24.3715 22.187 25.8747 19.7808 26.3247V28.1569C19.7808 28.4669 19.5236 28.7197 19.2083 28.7197H17.735C17.4197 28.7197 17.1625 28.4669 17.1625 28.1569V26.4112C16.3495 26.3188 15.5533 26.1172 14.8255 25.8087C14.0554 25.4823 13.3717 25.0227 12.8117 24.4074C12.5258 24.0932 12.5785 23.6068 12.9252 23.3586L13.9236 22.6437C14.2173 22.4335 14.6217 22.469 14.8724 22.7274L14.8726 22.7278Z" fill="white"/>
<path d="M18.47 0C27.7669 0 35.4156 6.92998 36.3691 15.8217H33.8088C32.8685 8.31423 26.3608 2.50143 18.4703 2.50143C9.93328 2.50143 3.01329 9.30478 3.01329 17.6978C3.01329 26.0909 9.93328 32.8942 18.4703 32.8942C21.2095 32.8942 23.7819 32.1931 26.0129 30.9644L27.7079 32.8898C25.0073 34.4806 21.8475 35.3957 18.4703 35.3957C8.52854 35.3957 0.46875 27.472 0.46875 17.6978C0.46875 7.92371 8.52854 0 18.47 0Z" fill="white"/>
<path fill-rule="evenodd" clip-rule="evenodd" d="M30.2289 26.7302H27.1903C26.8802 26.7302 26.6148 26.5626 26.4857 26.2853C26.3567 26.008 26.4015 25.701 26.6046 25.4705L33.2147 17.9617C33.3671 17.7885 33.5674 17.6985 33.8004 17.6985C34.0333 17.6985 34.2337 17.7885 34.386 17.9617L40.9961 25.4705C41.1991 25.701 41.2438 26.008 41.115 26.2853C40.986 26.5626 40.7208 26.7302 40.4107 26.7302H37.3721V35.7834C37.3721 36.2028 37.0242 36.5449 36.5975 36.5449H31.0036C30.577 36.5449 30.2291 36.2028 30.2291 35.7834V26.7302H30.2289Z" fill="white"/>
</g>
<defs>
<clipPath id="clip0_12_3354">
<rect width="40.7208" height="36.5443" fill="white" transform="translate(0.46875)"/>
</clipPath>
</defs>
</svg>
