<svg width="38" height="38" viewBox="0 0 38 38" fill="none" xmlns="http://www.w3.org/2000/svg">
<path d="M37.5167 18.7583C37.5167 17.2094 34.445 16.0848 34.0631 14.6563C33.6681 13.1782 35.7543 10.6709 35.0055 9.37688C34.2461 8.06422 31.0249 8.6226 29.9594 7.5573C28.8941 6.49201 29.4525 3.27078 28.1398 2.51116C26.8457 1.7624 24.3383 3.84859 22.8605 3.45354C21.4319 3.07163 20.3072 0 18.7582 0C17.2093 0 16.0847 3.07163 14.6562 3.45354C13.1781 3.84859 10.6708 1.7624 9.37683 2.51116C8.06418 3.27059 8.62255 6.49182 7.55726 7.5573C6.49197 8.6226 3.27076 8.06422 2.51115 9.37688C1.7624 10.6711 3.84857 13.1784 3.45352 14.6563C3.07162 16.0848 0 17.2094 0 18.7583C0 20.3073 3.07162 21.4319 3.45352 22.8604C3.84857 24.3385 1.7624 26.8458 2.51115 28.1398C3.27057 29.4524 6.49178 28.8941 7.55726 29.9594C8.62255 31.0247 8.06418 34.2459 9.37683 35.0055C10.671 35.7543 13.1783 33.6681 14.6562 34.0631C16.0847 34.445 17.2095 37.5167 18.7582 37.5167C20.307 37.5167 21.4317 34.445 22.8603 34.0631C24.3383 33.6681 26.8457 35.7543 28.1396 35.0055C29.4523 34.2461 28.8939 31.0248 29.9592 29.9594C31.0245 28.8941 34.2457 29.4524 35.0053 28.1398C35.7541 26.8456 33.6679 24.3383 34.063 22.8604C34.4449 21.4319 37.5167 20.3071 37.5167 18.7583ZM27.1491 15.3408L17.2323 25.3252C16.8546 25.7054 16.2398 25.7066 15.861 25.3275L11.6616 21.1283C11.2835 20.7502 11.2835 20.1373 11.6616 19.7592L12.8494 18.5714C13.2275 18.1933 13.8404 18.1933 14.2185 18.5714L16.539 20.8922L24.5838 12.7927C24.9605 12.4133 25.5736 12.4113 25.9528 12.7881L27.1445 13.9717C27.5239 14.3485 27.5258 14.9616 27.1491 15.3408Z" fill="white"/>
</svg>
