<svg width="108" height="31" viewBox="0 0 108 31" fill="none" xmlns="http://www.w3.org/2000/svg">
<path d="M14.3172 16.772C14.3172 16.772 16.9848 16.3995 18.4101 16.1596C18.4101 16.1596 34.2437 12.8379 31.9536 3.69707C31.9536 3.69707 29.0071 -4.95277 10.5962 6.48533C10.5962 6.48533 -5.52468 16.7325 2.00196 26.6946C2.00196 26.6946 6.33992 32.7594 15.3426 30.0134C19.0794 28.8307 22.3732 26.5459 24.7931 23.4576C24.7931 23.4576 14.6525 30.259 9.08071 25.0126C9.08071 25.0126 6.45259 22.4868 8.59058 19.2752C8.59058 19.2752 9.81873 17.4267 14.3172 16.772ZM18.0017 6.51355C24.5931 2.50895 26.6889 4.36309 26.6889 4.36309C28.7874 6.44018 23.827 10.1485 23.827 10.1485C16.2496 16.058 11.1652 14.3026 11.1652 14.3026C11.7821 10.5436 18.0017 6.51355 18.0017 6.51355Z" fill="white"/>
<path d="M27.324 14.8598C27.324 14.8598 23.1776 14.7441 22.4255 18.3367C21.6903 21.853 26.6085 24.1361 29.7211 22.3469V20.3884C29.7211 20.3884 27.4479 22.4034 25.2508 20.5351C25.2508 20.5351 23.6649 19.0676 25.2508 17.2953C25.2508 17.2953 26.7944 15.7459 28.938 17.1344C29.2458 17.3457 29.4983 17.6281 29.6743 17.9576C29.8503 18.2872 29.9446 18.6543 29.9493 19.0281V22.8436H32.1042V18.7064C32.1042 18.7064 31.9464 15.1053 27.324 14.8598Z" fill="white"/>
<path d="M97.7614 14.8598C97.7614 14.8598 93.6121 14.7441 92.8629 18.3367C92.1277 21.853 97.0543 24.1361 100.153 22.3469V20.3884C100.153 20.3884 97.8797 22.4034 95.6825 20.5351C95.6825 20.5351 94.0995 19.0676 95.6825 17.2953C95.6825 17.2953 97.2262 15.7459 99.3698 17.1344C99.6775 17.3457 99.9301 17.6281 100.106 17.9576C100.282 18.2872 100.376 18.6543 100.381 19.0281V22.8436H102.539V18.7064C102.539 18.7064 102.381 15.1053 97.7614 14.8598Z" fill="white"/>
<path d="M41.4455 14.9141H36.9386C36.9386 14.9141 34.2344 14.9649 34.2344 16.9799C34.2344 18.9949 36.6203 19.2573 36.9386 19.3561C37.2569 19.4549 40.2596 20.2422 39.7554 20.8377C39.7554 20.8377 39.6399 20.9732 39.192 20.9732H34.3668V22.8386H38.9611C38.9611 22.8386 41.7779 22.7229 41.9159 20.9252C42.054 19.009 40.3188 18.5969 39.3977 18.3204C38.4766 18.0438 36.1386 17.5132 36.3442 16.946C36.3442 16.946 36.3695 16.7682 36.6512 16.7682H41.4399L41.4455 14.9141Z" fill="white"/>
<path d="M49.2626 14.9531V19.9342C49.2626 19.9342 49.1471 21.3453 47.5106 21.3453C47.0864 21.3772 46.6655 21.2507 46.329 20.9902C45.9924 20.7296 45.7641 20.3534 45.6881 19.9342V14.9531H43.5078V19.6858C43.5078 19.6858 43.5078 22.3358 46.4092 22.9115V26.2981H48.6429V22.8861C49.4045 22.7538 50.0978 22.364 50.6073 21.7817C51.1168 21.1993 51.4117 20.4596 51.4429 19.6858V14.9531H49.2626Z" fill="white"/>
<path d="M58.7188 14.9453V22.867H60.9497V19.1729C60.9497 16.9011 62.4933 16.7233 62.4933 16.7233H64.1581V14.9453H62.4116C61.8276 14.9528 61.2619 15.151 60.8004 15.5097V14.9453H58.7188Z" fill="white"/>
<path d="M72.4707 19.0562C72.3834 20.2895 71.2116 21.2659 69.775 21.2659C68.4144 21.2659 67.2905 20.3883 67.1018 19.2425L68.0849 20.504L72.4059 18.3704L74.2988 17.4335C74.0475 16.9043 73.6853 16.4355 73.2369 16.0591C72.2509 15.2466 71.0093 14.8107 69.7327 14.8287C67.0314 14.8287 64.8398 16.6602 64.8398 18.9151C64.8398 21.17 67.0314 23.0016 69.7327 23.0016C72.3524 23.0016 74.4819 21.2829 74.6115 19.1239L72.4707 19.0562ZM69.775 16.5473C70.3276 16.5433 70.8703 16.6948 71.3411 16.9848L67.0821 19.059V18.9066C67.0708 17.6028 68.282 16.5473 69.775 16.5473Z" fill="white"/>
<path d="M80.7887 14.8863C84.476 15.2927 84.4169 18.2474 84.4169 18.2474V22.7939H82.3493V18.445C82.3114 17.941 82.0849 17.47 81.7151 17.1263C81.3452 16.7826 80.8594 16.5916 80.3549 16.5916C79.8505 16.5916 79.3647 16.7826 78.9948 17.1263C78.625 17.47 78.3984 17.941 78.3606 18.445V22.8052H76.293V18.2728C76.293 18.2728 76.2339 15.3181 79.9211 14.9117C80.2083 14.8681 80.4996 14.8596 80.7887 14.8863Z" fill="white"/>
<path d="M107.55 11.5703H105.305V22.8391H107.55V11.5703Z" fill="white"/>
<path d="M90.095 20.97C88.8049 20.97 88.8471 19.6323 88.8471 19.6323V16.7678H91.8358V14.9221H88.8471V14.75H86.6641V20.0979C86.6641 20.0979 86.7063 22.7733 89.926 22.7733L91.8555 22.7959V20.97H90.095Z" fill="white"/>
<path d="M89.2669 11.8454C89.2669 12.1564 89.1748 12.4604 89.0023 12.719C88.8297 12.9775 88.5845 13.179 88.2977 13.2979C88.0108 13.4168 87.6952 13.4478 87.3908 13.3869C87.0863 13.326 86.8068 13.176 86.5875 12.9559C86.3682 12.7358 86.2189 12.4554 86.1587 12.1503C86.0985 11.8452 86.13 11.529 86.2491 11.2419C86.3683 10.9547 86.5699 10.7094 86.8283 10.537C87.0867 10.3646 87.3903 10.2729 87.7007 10.2734C87.9066 10.2734 88.1105 10.3141 88.3007 10.3932C88.4909 10.4722 88.6637 10.588 88.8092 10.734C88.9546 10.88 89.0699 11.0533 89.1485 11.244C89.227 11.4347 89.2673 11.6391 89.2669 11.8454Z" fill="white"/>
</svg>
