<svg width="28" height="29" viewBox="0 0 28 29" fill="none" xmlns="http://www.w3.org/2000/svg">
<path d="M14.005 0.962891C11.2358 0.961915 8.52855 1.78219 6.22561 3.31993C3.92268 4.85768 2.12752 7.04383 1.06713 9.60191C0.00675001 12.16 -0.271233 14.9751 0.268402 17.6911C0.808038 20.4072 2.14102 22.9022 4.09876 24.8606C6.0565 26.8191 8.55104 28.1529 11.2669 28.6935C13.9828 29.2341 16.7979 28.9572 19.3564 27.8977C21.9149 26.8382 24.1017 25.0438 25.6402 22.7414C27.1788 20.439 28 17.732 28 14.9629C28 11.2507 26.5257 7.69051 23.9013 5.06515C21.2768 2.43978 17.7171 0.964201 14.005 0.962891ZM21.7531 22.5777H16.4148L14.5926 25.5407C14.5772 25.5742 14.5554 25.6044 14.5284 25.6296C14.476 25.7223 14.3999 25.7995 14.308 25.8533C14.216 25.9071 14.1115 25.9355 14.005 25.9357C13.8965 25.9358 13.7899 25.907 13.6962 25.8523C13.6025 25.7977 13.525 25.7191 13.4716 25.6246C13.4486 25.5991 13.4287 25.5709 13.4123 25.5407L11.5901 22.5777H6.24689C5.30164 22.5712 4.39732 22.1911 3.73122 21.5204C3.06512 20.8497 2.69134 19.9427 2.69136 18.9975V10.4641C2.69005 9.51366 3.0657 8.60148 3.73592 7.92756C4.40614 7.25364 5.31622 6.87299 6.26667 6.86907H21.7728C22.7246 6.87169 23.6365 7.25162 24.3085 7.92554C24.9806 8.59946 25.358 9.51236 25.358 10.4641V18.9975C25.3574 19.4695 25.2635 19.9368 25.0818 20.3725C24.9001 20.8082 24.6342 21.2037 24.2992 21.5364C23.9643 21.869 23.567 22.1323 23.13 22.311C22.6931 22.4897 22.2251 22.5803 21.7531 22.5777Z" fill="black"/>
<path d="M7.70337 13.1172C7.25637 13.1503 6.83674 13.3451 6.52312 13.6654V11.4629H5.16016V17.2456H6.56261V16.7913C6.68904 16.9828 6.86276 17.1383 7.06692 17.243C7.27108 17.3477 7.49877 17.3979 7.72803 17.3888C8.00047 17.38 8.26842 17.3169 8.51609 17.203C8.76375 17.0891 8.98616 16.9269 9.1702 16.7258C9.35425 16.5248 9.49621 16.2889 9.58777 16.0322C9.67933 15.7754 9.71862 15.5029 9.70333 15.2308C9.70333 15.2308 9.6046 13.1172 7.70337 13.1172ZM7.3972 16.1691C7.22042 16.1691 7.04759 16.1166 6.9006 16.0184C6.75362 15.9202 6.63906 15.7806 6.57141 15.6173C6.50376 15.454 6.48604 15.2742 6.52053 15.1009C6.55502 14.9275 6.64015 14.7682 6.76515 14.6432C6.89016 14.5182 7.04942 14.4331 7.22281 14.3986C7.39619 14.3641 7.57592 14.3818 7.73924 14.4495C7.90257 14.5171 8.04214 14.6317 8.14035 14.7787C8.23857 14.9256 8.291 15.0985 8.291 15.2753C8.29165 15.3928 8.26901 15.5093 8.22433 15.6181C8.17964 15.7268 8.11383 15.8256 8.0307 15.9087C7.94757 15.9918 7.84876 16.0577 7.74002 16.1024C7.63128 16.1471 7.51477 16.1697 7.3972 16.1691Z" fill="black"/>
<path d="M10.0996 11.3262V12.6694C10.0996 12.6694 10.7315 12.6398 10.7315 13.82V17.2422H12.0742V13.504C12.0742 13.504 12.1334 11.3262 10.0996 11.3262Z" fill="black"/>
<path d="M15.3424 13.1367C15.3424 13.1367 13.051 13.1367 13.051 15.275C13.051 15.275 12.977 17.3886 15.3424 17.3886C15.3424 17.3886 17.6881 17.3886 17.6881 15.275C17.6881 15.275 17.7671 13.1367 15.3424 13.1367ZM15.3424 16.1688C15.1654 16.1698 14.9921 16.1182 14.8445 16.0206C14.6968 15.923 14.5815 15.7837 14.5131 15.6205C14.4447 15.4572 14.4263 15.2774 14.4602 15.1036C14.4942 14.9299 14.5789 14.7702 14.7037 14.6447C14.8285 14.5192 14.9877 14.4336 15.1613 14.3987C15.3348 14.3638 15.5147 14.3812 15.6784 14.4487C15.842 14.5163 15.9819 14.6308 16.0803 14.7779C16.1787 14.925 16.2313 15.098 16.2313 15.275C16.2313 15.5104 16.1385 15.7362 15.973 15.9036C15.8075 16.0709 15.5827 16.1662 15.3473 16.1688H15.3424Z" fill="black"/>
<path d="M21.5216 13.6655C21.3774 13.4981 21.1984 13.3641 20.9971 13.2728C20.7959 13.1815 20.5771 13.1353 20.3562 13.1371C20.3562 13.1371 18.3809 13.0532 18.3809 15.2606C18.3809 15.2606 18.3809 17.3198 20.292 17.3198C20.5214 17.3253 20.7493 17.2809 20.9599 17.1897C21.1705 17.0985 21.3588 16.9626 21.5117 16.7915V17.1174C21.5272 17.242 21.5159 17.3685 21.4784 17.4884C21.4409 17.6083 21.3782 17.7187 21.2944 17.8123C21.2107 17.9059 21.1079 17.9805 20.9929 18.031C20.8779 18.0814 20.7533 18.1067 20.6277 18.105H20.292V19.3347H20.8302C21.1092 19.3368 21.3856 19.2811 21.642 19.171C21.8984 19.061 22.1293 18.899 22.32 18.6953C22.5106 18.4917 22.6571 18.2507 22.75 17.9876C22.8429 17.7245 22.8803 17.445 22.8598 17.1668V13.2507H21.5117L21.5216 13.6655ZM20.6919 16.1692C20.5149 16.1702 20.3416 16.1186 20.194 16.021C20.0464 15.9234 19.931 15.7841 19.8626 15.6209C19.7942 15.4577 19.7758 15.2778 19.8098 15.1041C19.8437 14.9304 19.9284 14.7706 20.0533 14.6451C20.1781 14.5196 20.3373 14.434 20.5108 14.3991C20.6844 14.3642 20.8643 14.3817 21.0279 14.4492C21.1916 14.5167 21.3314 14.6312 21.4298 14.7783C21.5283 14.9254 21.5808 15.0984 21.5808 15.2754C21.5808 15.5116 21.4873 15.7382 21.3208 15.9057C21.1542 16.0732 20.9281 16.1679 20.6919 16.1692Z" fill="black"/>
</svg>
