<svg width="28" height="29" viewBox="0 0 28 29" fill="none" xmlns="http://www.w3.org/2000/svg">
<path d="M28 14.9663C28.0004 12.2096 27.187 9.51409 25.662 7.21776C24.1369 4.92142 21.968 3.12642 19.4272 2.05777C16.8863 0.989113 14.0866 0.694361 11.3789 1.21047C8.67124 1.72658 6.17617 3.0306 4.20646 4.95902C2.23675 6.88744 0.880072 9.35447 0.30648 12.0508C-0.267111 14.7472 -0.0320725 17.5529 0.982117 20.1162C1.99631 22.6795 3.74453 24.8864 6.00762 26.4602C8.2707 28.0339 10.9479 28.9045 13.7037 28.9629V19.3421H10.2914V15.391H13.7037V12.4771C13.7037 9.09401 15.7728 7.25676 18.7852 7.25676C19.8045 7.25218 20.8233 7.30329 21.837 7.40986V10.9411H19.7432C18.1037 10.9411 17.7679 11.7215 17.7679 12.8623V15.3861H21.6839L21.1901 19.3371H17.7827V28.4394C20.7215 27.6146 23.3102 25.8519 25.1547 23.4196C26.9992 20.9874 27.9983 18.0189 28 14.9663Z" fill="black"/>
</svg>
