<svg width="28" height="29" viewBox="0 0 28 29" fill="none" xmlns="http://www.w3.org/2000/svg">
<path d="M14 0.962891C11.2309 0.962892 8.52392 1.78412 6.22152 3.32268C3.91913 4.86123 2.12469 7.04801 1.06521 9.60646C0.00573264 12.1649 -0.271217 14.9801 0.269376 17.696C0.809969 20.4118 2.14383 22.9064 4.10226 24.8641C6.06069 26.8219 8.55574 28.1548 11.2718 28.6945C13.9879 29.2341 16.8029 28.9562 19.361 27.8958C21.9191 26.8354 24.1052 25.0402 25.643 22.7373C27.1807 20.4343 28.001 17.7271 28 14.958C28 13.1197 27.6378 11.2994 26.9342 9.60113C26.2306 7.90284 25.1993 6.35983 23.8992 5.0602C22.5991 3.76058 21.0557 2.72983 19.3572 2.0268C17.6587 1.32377 15.8383 0.962243 14 0.962891ZM22.0296 15.0419C22.0166 16.2192 21.9358 17.3948 21.7877 18.5629C21.4815 19.7876 20.9086 20.2616 19.8519 20.4295C19.2444 20.5184 16.321 20.637 14 20.637C11.679 20.637 8.75559 20.5234 8.14818 20.4345C7.09139 20.2666 6.51853 19.7925 6.21236 18.5678C6.0642 17.3998 5.98341 16.2242 5.97039 15.0468V14.8542C5.98359 13.6769 6.06438 12.5013 6.21236 11.3333C6.51853 10.1086 7.09139 9.63451 8.14818 9.46661C8.75559 9.37772 11.6741 9.25918 13.9901 9.25918C16.3062 9.25918 19.2296 9.37772 19.837 9.46661C20.8938 9.63451 21.4667 10.1086 21.7729 11.3333C21.9208 12.5013 22.0016 13.6769 22.0148 14.8542L22.0296 15.0419Z" fill="black"/>
<path d="M13 16.5797C13 16.8054 13.2399 16.9503 13.4396 16.8452L16.4836 15.2444C16.6996 15.1307 16.6967 14.8204 16.4786 14.7108L13.4347 13.1813C13.2352 13.0811 13 13.2261 13 13.4494V16.5797Z" fill="black"/>
</svg>
